<svg width="1019" height="495" viewBox="0 0 1019 495" fill="none" xmlns="http://www.w3.org/2000/svg">
<mask id="path-1-outside-1_170_76" maskUnits="userSpaceOnUse" x="916.453" y="35.3077" width="54.8472" height="135.996" fill="black">
<rect fill="white" x="916.453" y="35.3077" width="54.8472" height="135.996"/>
<path d="M967.264 39.5966L952.793 119.481L928.525 128.314L937.461 50.4438L967.264 39.5966ZM935.073 161.544C930.958 163.042 927.652 162.814 925.156 160.861C922.701 158.857 921.816 155.664 922.499 151.281C923.096 147.037 925.073 142.872 928.431 138.788C931.825 134.691 935.579 131.894 939.695 130.396C943.597 128.976 946.815 129.236 949.346 131.176C951.913 133.103 952.898 136.19 952.302 140.434C951.834 143.36 950.713 146.277 948.94 149.183C947.207 152.04 945.118 154.584 942.672 156.817C940.232 159.013 937.699 160.588 935.073 161.544Z"/>
</mask>
<path d="M967.264 39.5966L952.793 119.481L928.525 128.314L937.461 50.4438L967.264 39.5966ZM935.073 161.544C930.958 163.042 927.652 162.814 925.156 160.861C922.701 158.857 921.816 155.664 922.499 151.281C923.096 147.037 925.073 142.872 928.431 138.788C931.825 134.691 935.579 131.894 939.695 130.396C943.597 128.976 946.815 129.236 949.346 131.176C951.913 133.103 952.898 136.19 952.302 140.434C951.834 143.36 950.713 146.277 948.94 149.183C947.207 152.04 945.118 154.584 942.672 156.817C940.232 159.013 937.699 160.588 935.073 161.544Z" fill="#FAD77C"/>
<path d="M967.264 39.5966L970.065 38.6807L970.629 35.5644L967.704 36.6291L967.264 39.5966ZM952.793 119.481L952.353 122.449L955.069 121.46L955.594 118.565L952.793 119.481ZM928.525 128.314L925.692 129.449L925.368 132.27L928.085 131.282L928.525 128.314ZM937.461 50.4438L937.901 47.4763L934.976 48.5409L934.628 51.5787L937.461 50.4438ZM925.156 160.861L922.851 163.685L922.862 163.693L922.872 163.701L925.156 160.861ZM922.499 151.281L925.315 150.281L925.319 150.255L925.322 150.229L922.499 151.281ZM928.431 138.788L926.777 137.381L926.77 137.39L926.763 137.398L928.431 138.788ZM949.346 131.176L947.072 134.024L947.077 134.028L947.082 134.032L949.346 131.176ZM952.302 140.434L955.115 139.446L955.12 139.414L955.125 139.382L952.302 140.434ZM948.94 149.183L946.782 148.481L946.774 148.494L948.94 149.183ZM942.672 156.817L943.72 158.856L943.735 158.842L943.751 158.828L942.672 156.817ZM964.463 40.5124L949.992 120.397L955.594 118.565L970.065 38.6807L964.463 40.5124ZM953.233 116.514L928.965 125.346L928.085 131.282L952.353 122.449L953.233 116.514ZM931.358 127.179L940.295 49.3089L934.628 51.5787L925.692 129.449L931.358 127.179ZM937.021 53.4113L966.823 42.5641L967.704 36.6291L937.901 47.4763L937.021 53.4113ZM935.514 158.576C932.134 159.806 929.49 159.624 927.44 158.02L922.872 163.701C925.814 166.004 929.782 166.277 934.633 164.511L935.514 158.576ZM927.461 158.037C925.461 156.405 924.754 153.873 925.315 150.281L919.684 152.282C918.877 157.455 919.941 161.309 922.851 163.685L927.461 158.037ZM925.322 150.229C925.805 146.795 927.359 143.511 930.099 140.178L926.763 137.398C922.787 142.234 920.387 147.279 919.677 152.333L925.322 150.229ZM930.085 140.196C932.871 136.831 935.874 134.594 939.254 133.364L940.135 127.429C935.284 129.194 930.778 132.552 926.777 137.381L930.085 140.196ZM939.254 133.364C942.38 132.226 944.957 132.403 947.072 134.024L951.62 128.328C948.672 126.068 944.815 125.725 940.135 127.429L939.254 133.364ZM947.082 134.032C949.195 135.619 949.959 138.068 949.479 141.486L955.125 139.382C955.837 134.311 954.63 130.588 951.609 128.32L947.082 134.032ZM949.489 141.422C949.105 143.822 948.202 146.154 946.782 148.481L951.097 149.886C953.224 146.4 954.563 142.899 955.115 139.446L949.489 141.422ZM946.774 148.494C945.334 150.868 943.616 152.959 941.593 154.806L943.751 158.828C946.619 156.21 949.079 153.212 951.105 149.873L946.774 148.494ZM941.624 154.778C939.662 156.543 937.644 157.801 935.514 158.576L934.633 164.511C937.754 163.375 940.801 161.483 943.72 158.856L941.624 154.778Z" fill="black" mask="url(#path-1-outside-1_170_76)"/>
<mask id="path-3-outside-2_170_76" maskUnits="userSpaceOnUse" x="952.872" y="15.2585" width="59.0204" height="137.337" fill="black">
<rect fill="white" x="952.872" y="15.2585" width="59.0204" height="137.337"/>
<path d="M1008.06 20.1457L990.955 100.46L966.433 109.385L977.944 31.1066L1008.06 20.1457ZM971.866 142.768C967.707 144.282 964.414 144.06 961.987 142.102C959.603 140.093 958.825 136.886 959.653 132.48C960.39 128.213 962.502 124.023 965.991 119.912C969.515 115.788 973.357 112.969 977.515 111.455C981.459 110.02 984.662 110.275 987.125 112.22C989.624 114.152 990.505 117.252 989.768 121.519C989.204 124.46 987.988 127.394 986.121 130.319C984.296 133.193 982.125 135.754 979.609 138.003C977.1 140.214 974.519 141.803 971.866 142.768Z"/>
</mask>
<path d="M1008.06 20.1457L990.955 100.46L966.433 109.385L977.944 31.1066L1008.06 20.1457ZM971.866 142.768C967.707 144.282 964.414 144.06 961.987 142.102C959.603 140.093 958.825 136.886 959.653 132.48C960.39 128.213 962.502 124.023 965.991 119.912C969.515 115.788 973.357 112.969 977.515 111.455C981.459 110.02 984.662 110.275 987.125 112.22C989.624 114.152 990.505 117.252 989.768 121.519C989.204 124.46 987.988 127.394 986.121 130.319C984.296 133.193 982.125 135.754 979.609 138.003C977.1 140.214 974.519 141.803 971.866 142.768Z" fill="#FAD77C"/>
<path d="M1008.06 20.1457L1010.86 19.2293L1011.52 16.1287L1008.59 17.1934L1008.06 20.1457ZM990.955 100.46L990.422 103.412L993.139 102.423L993.753 99.5435L990.955 100.46ZM966.433 109.385L963.596 110.519L963.183 113.326L965.9 112.338L966.433 109.385ZM977.944 31.1066L978.476 28.1543L975.551 29.219L975.107 32.241L977.944 31.1066ZM961.987 142.102L959.617 144.915L959.627 144.923L959.637 144.931L961.987 142.102ZM959.653 132.48L962.468 131.479L962.473 131.453L962.477 131.428L959.653 132.48ZM965.991 119.912L964.403 118.516L964.396 118.524L964.389 118.533L965.991 119.912ZM987.125 112.22L984.785 115.058L984.79 115.061L984.795 115.065L987.125 112.22ZM989.768 121.519L992.58 120.531L992.586 120.499L992.592 120.467L989.768 121.519ZM986.121 130.319L984.012 129.624L984.004 129.637L986.121 130.319ZM979.609 138.003L980.577 140.029L980.593 140.015L980.609 140.001L979.609 138.003ZM1005.26 21.0621L988.158 101.376L993.753 99.5435L1010.86 19.2293L1005.26 21.0621ZM991.488 97.5075L966.966 106.433L965.9 112.338L990.422 103.412L991.488 97.5075ZM969.27 108.251L980.781 29.9723L975.107 32.241L963.596 110.519L969.27 108.251ZM977.411 34.059L1007.53 23.0981L1008.59 17.1934L978.476 28.1543L977.411 34.059ZM972.398 139.816C968.975 141.062 966.335 140.884 964.337 139.272L959.637 144.931C962.494 147.236 966.439 147.502 971.333 145.721L972.398 139.816ZM964.357 139.289C962.411 137.649 961.787 135.099 962.468 131.479L956.839 133.481C955.863 138.673 956.795 142.537 959.617 144.915L964.357 139.289ZM962.477 131.428C963.074 127.966 964.74 124.654 967.593 121.292L964.389 118.533C960.265 123.393 957.705 128.459 956.83 133.532L962.477 131.428ZM967.579 121.309C970.479 117.914 973.56 115.654 976.983 114.408L978.048 108.503C973.154 110.285 968.551 113.662 964.403 118.516L967.579 121.309ZM976.983 114.408C980.149 113.255 982.723 113.429 984.785 115.058L989.465 109.383C986.602 107.121 982.769 106.785 978.048 108.503L976.983 114.408ZM984.795 115.065C986.856 116.659 987.539 119.126 986.945 122.571L992.592 120.467C993.47 115.377 992.391 111.645 989.455 109.375L984.795 115.065ZM986.956 122.507C986.492 124.925 985.511 127.276 984.012 129.624L988.229 131.013C990.465 127.511 991.916 123.996 992.58 120.531L986.956 122.507ZM984.004 129.637C982.484 132.031 980.695 134.14 978.609 136.005L980.609 140.001C983.555 137.368 986.107 134.355 988.237 131L984.004 129.637ZM978.641 135.977C976.619 137.759 974.556 139.031 972.398 139.816L971.333 145.721C974.481 144.575 977.581 142.67 980.577 140.029L978.641 135.977Z" fill="black" mask="url(#path-3-outside-2_170_76)"/>
<mask id="path-5-outside-3_170_76" maskUnits="userSpaceOnUse" x="335.542" y="203.373" width="127.833" height="161.3" fill="black">
<rect fill="white" x="335.542" y="203.373" width="127.833" height="161.3"/>
<path d="M380.756 348.908L349.885 360.144L374.893 235.776L413.996 221.543L458.551 320.593L427.68 331.829L397.547 259.273L396.724 259.573L380.756 348.908ZM371.137 306.933L429.175 285.809L431.16 308.5L373.122 329.623L371.137 306.933Z"/>
</mask>
<path d="M380.756 348.908L349.885 360.144L374.893 235.776L413.996 221.543L458.551 320.593L427.68 331.829L397.547 259.273L396.724 259.573L380.756 348.908ZM371.137 306.933L429.175 285.809L431.16 308.5L373.122 329.623L371.137 306.933Z" fill="#FAD77C"/>
<path d="M380.756 348.908L381.017 351.896L383.111 351.134L383.53 348.789L380.756 348.908ZM349.885 360.144L347.126 360.182L346.247 364.552L350.146 363.133L349.885 360.144ZM374.893 235.776L374.631 232.787L372.593 233.529L372.134 235.813L374.893 235.776ZM413.996 221.543L416.591 219.632L415.773 217.813L413.735 218.555L413.996 221.543ZM458.551 320.593L458.812 323.581L462.711 322.162L461.146 318.682L458.551 320.593ZM427.68 331.829L425.056 333.675L425.847 335.58L427.941 334.818L427.68 331.829ZM397.547 259.273L400.171 257.427L399.38 255.523L397.286 256.285L397.547 259.273ZM396.724 259.573L396.463 256.584L394.369 257.346L393.95 259.691L396.724 259.573ZM371.137 306.933L370.876 303.944L368.057 304.97L368.318 307.959L371.137 306.933ZM429.175 285.809L431.994 284.783L431.732 281.794L428.913 282.82L429.175 285.809ZM431.16 308.5L431.421 311.488L434.241 310.462L433.979 307.473L431.16 308.5ZM373.122 329.623L370.303 330.65L370.565 333.638L373.384 332.612L373.122 329.623ZM380.494 345.919L349.623 357.155L350.146 363.133L381.017 351.896L380.494 345.919ZM352.644 360.106L377.652 235.738L372.134 235.813L347.126 360.182L352.644 360.106ZM375.154 238.764L414.258 224.532L413.735 218.555L374.631 232.787L375.154 238.764ZM411.401 223.454L455.956 322.504L461.146 318.682L416.591 219.632L411.401 223.454ZM458.289 317.604L427.418 328.84L427.941 334.818L458.812 323.581L458.289 317.604ZM430.303 329.983L400.171 257.427L394.924 261.119L425.056 333.675L430.303 329.983ZM397.286 256.285L396.463 256.584L396.986 262.561L397.809 262.262L397.286 256.285ZM393.95 259.691L377.981 349.026L383.53 348.789L399.499 259.454L393.95 259.691ZM371.399 309.921L429.436 288.797L428.913 282.82L370.876 303.944L371.399 309.921ZM426.356 286.835L428.341 309.526L433.979 307.473L431.994 284.783L426.356 286.835ZM430.899 305.511L372.861 326.635L373.384 332.612L431.421 311.488L430.899 305.511ZM375.941 328.597L373.956 305.907L368.318 307.959L370.303 330.65L375.941 328.597Z" fill="black" mask="url(#path-5-outside-3_170_76)"/>
<mask id="path-7-outside-4_170_76" maskUnits="userSpaceOnUse" x="429.24" y="173.556" width="103.401" height="152.407" fill="black">
<rect fill="white" x="429.24" y="173.556" width="103.401" height="152.407"/>
<path d="M442.383 321.871L432.61 210.161L478.299 193.532C486.326 190.611 493.166 189.303 498.82 189.609C504.509 189.902 508.925 191.634 512.07 194.805C515.248 197.963 517.086 202.378 517.582 208.051C517.942 212.16 517.412 216.217 515.992 220.224C514.608 224.217 512.489 227.915 509.637 231.317C506.781 234.683 503.351 237.545 499.345 239.903L499.44 240.994C503.984 239.528 508.207 239.248 512.109 240.154C516.007 241.024 519.226 243.023 521.765 246.151C524.3 249.243 525.799 253.425 526.26 258.698C526.795 264.807 525.761 270.793 523.159 276.655C520.592 282.505 516.666 287.799 511.382 292.536C506.099 297.273 499.632 301.034 491.983 303.818L442.383 321.871ZM468.872 287.24L482.249 282.371C487.051 280.623 490.57 278.367 492.806 275.602C495.038 272.801 495.991 269.528 495.663 265.782C495.434 263.164 494.674 261.152 493.383 259.746C492.092 258.34 490.359 257.544 488.184 257.361C486.043 257.164 483.515 257.597 480.599 258.658L466.81 263.677L468.872 287.24ZM465.169 244.913L476.9 240.643C479.404 239.732 481.579 238.508 483.427 236.973C485.275 235.437 486.662 233.694 487.588 231.744C488.546 229.744 488.925 227.599 488.724 225.308C488.422 221.854 487.025 219.642 484.534 218.672C482.039 217.667 479.008 217.813 475.44 219.112L463.298 223.531L465.169 244.913Z"/>
</mask>
<path d="M442.383 321.871L432.61 210.161L478.299 193.532C486.326 190.611 493.166 189.303 498.82 189.609C504.509 189.902 508.925 191.634 512.07 194.805C515.248 197.963 517.086 202.378 517.582 208.051C517.942 212.16 517.412 216.217 515.992 220.224C514.608 224.217 512.489 227.915 509.637 231.317C506.781 234.683 503.351 237.545 499.345 239.903L499.44 240.994C503.984 239.528 508.207 239.248 512.109 240.154C516.007 241.024 519.226 243.023 521.765 246.151C524.3 249.243 525.799 253.425 526.26 258.698C526.795 264.807 525.761 270.793 523.159 276.655C520.592 282.505 516.666 287.799 511.382 292.536C506.099 297.273 499.632 301.034 491.983 303.818L442.383 321.871ZM468.872 287.24L482.249 282.371C487.051 280.623 490.57 278.367 492.806 275.602C495.038 272.801 495.991 269.528 495.663 265.782C495.434 263.164 494.674 261.152 493.383 259.746C492.092 258.34 490.359 257.544 488.184 257.361C486.043 257.164 483.515 257.597 480.599 258.658L466.81 263.677L468.872 287.24ZM465.169 244.913L476.9 240.643C479.404 239.732 481.579 238.508 483.427 236.973C485.275 235.437 486.662 233.694 487.588 231.744C488.546 229.744 488.925 227.599 488.724 225.308C488.422 221.854 487.025 219.642 484.534 218.672C482.039 217.667 479.008 217.813 475.44 219.112L463.298 223.531L465.169 244.913Z" fill="#FAD77C"/>
<path d="M442.383 321.871L439.564 322.897L439.826 325.885L442.645 324.859L442.383 321.871ZM432.61 210.161L432.349 207.173L429.53 208.199L429.791 211.188L432.61 210.161ZM498.82 189.609L498.025 192.765L498.031 192.765L498.82 189.609ZM512.07 194.805L509.916 197.364L509.921 197.37L509.926 197.375L512.07 194.805ZM515.992 220.224L513.386 219.712L513.381 219.725L513.377 219.738L515.992 220.224ZM509.637 231.317L511.463 233.183L511.471 233.173L511.479 233.163L509.637 231.317ZM499.345 239.903L498.531 237.176L496.312 238.483L496.526 240.929L499.345 239.903ZM499.44 240.994L496.621 242.02L496.873 244.898L499.595 244.019L499.44 240.994ZM512.109 240.154L510.932 243.257L510.941 243.259L510.95 243.261L512.109 240.154ZM521.765 246.151L519.473 248.558L519.48 248.566L521.765 246.151ZM523.159 276.655L520.673 275.84L520.67 275.848L520.666 275.857L523.159 276.655ZM511.382 292.536L509.955 290.26L511.382 292.536ZM468.872 287.24L466.053 288.266L466.314 291.255L469.133 290.229L468.872 287.24ZM492.806 275.602L494.697 277.389L494.706 277.378L494.716 277.366L492.806 275.602ZM488.184 257.361L487.303 260.511L487.311 260.511L487.319 260.512L488.184 257.361ZM466.81 263.677L466.549 260.688L463.73 261.714L463.991 264.703L466.81 263.677ZM465.169 244.913L462.349 245.939L462.611 248.928L465.43 247.902L465.169 244.913ZM483.427 236.973L484.74 239.348L484.74 239.348L483.427 236.973ZM487.588 231.744L485.155 230.816L485.149 230.828L487.588 231.744ZM484.534 218.672L483.051 221.679L483.063 221.684L483.074 221.688L484.534 218.672ZM463.298 223.531L463.036 220.543L460.217 221.569L460.479 224.557L463.298 223.531ZM445.202 320.845L435.429 209.135L429.791 211.188L439.564 322.897L445.202 320.845ZM432.872 213.15L478.561 196.521L478.038 190.543L432.349 207.173L432.872 213.15ZM478.561 196.521C486.354 193.684 492.814 192.483 498.025 192.765L499.616 186.452C493.518 186.122 486.297 187.537 478.038 190.543L478.561 196.521ZM498.031 192.765C503.307 193.038 507.203 194.629 509.916 197.364L514.224 192.245C510.648 188.639 505.711 186.767 499.61 186.452L498.031 192.765ZM509.926 197.375C512.68 200.111 514.315 203.958 514.763 209.077L520.401 207.025C519.856 200.798 517.817 195.815 514.213 192.234L509.926 197.375ZM514.763 209.077C515.082 212.728 514.61 216.257 513.386 219.712L518.599 220.735C520.214 216.178 520.801 211.592 520.401 207.025L514.763 209.077ZM513.377 219.738C512.168 223.222 510.322 226.456 507.794 229.47L511.479 233.163C514.656 229.373 517.047 225.212 518.608 220.709L513.377 219.738ZM507.811 229.451C505.285 232.428 502.21 235.01 498.531 237.176L500.159 242.63C504.491 240.079 508.277 236.937 511.463 233.183L507.811 229.451ZM496.526 240.929L496.621 242.02L502.26 239.968L502.164 238.877L496.526 240.929ZM499.595 244.019C503.71 242.692 507.472 242.453 510.932 243.257L513.285 237.051C508.941 236.042 504.259 236.364 499.286 237.969L499.595 244.019ZM510.95 243.261C514.391 244.029 517.221 245.783 519.473 248.557L524.057 243.745C521.231 240.263 517.623 238.019 513.267 237.047L510.95 243.261ZM519.48 248.566C521.667 251.233 523.019 254.902 523.441 259.724L529.079 257.672C528.579 251.948 526.934 247.253 524.05 243.737L519.48 248.566ZM523.441 259.724C523.927 265.28 522.988 270.624 520.673 275.84L525.645 277.47C528.534 270.961 529.662 264.334 529.079 257.672L523.441 259.724ZM520.666 275.857C518.377 281.074 514.849 285.873 509.955 290.26L512.81 294.812C518.484 289.724 522.807 283.936 525.652 277.454L520.666 275.857ZM509.955 290.26C505.107 294.607 499.061 298.158 491.721 300.829L492.244 306.806C500.203 303.91 507.09 299.94 512.81 294.812L509.955 290.26ZM491.721 300.829L442.122 318.882L442.645 324.859L492.244 306.806L491.721 300.829ZM469.133 290.229L482.511 285.36L481.988 279.383L468.61 284.252L469.133 290.229ZM482.511 285.36C487.58 283.515 491.808 280.962 494.697 277.389L490.915 273.815C489.332 275.772 486.523 277.732 481.988 279.383L482.511 285.36ZM494.716 277.366C497.721 273.595 498.876 269.254 498.482 264.756L492.844 266.808C493.106 269.801 492.356 272.007 490.896 273.839L494.716 277.366ZM498.482 264.756C498.212 261.672 497.294 259.098 495.592 257.243L491.174 262.248C492.054 263.206 492.656 264.656 492.844 266.808L498.482 264.756ZM495.592 257.243C493.917 255.418 491.694 254.433 489.049 254.209L487.319 260.512C489.024 260.656 490.267 261.261 491.174 262.248L495.592 257.243ZM489.065 254.21C486.463 253.972 483.528 254.508 480.338 255.669L480.861 261.646C483.501 260.685 485.623 260.357 487.303 260.511L489.065 254.21ZM480.338 255.669L466.549 260.688L467.072 266.665L480.861 261.646L480.338 255.669ZM463.991 264.703L466.053 288.266L471.691 286.214L469.629 262.651L463.991 264.703ZM465.43 247.902L477.161 243.632L476.638 237.655L464.907 241.924L465.43 247.902ZM477.161 243.632C479.959 242.614 482.506 241.204 484.74 239.348L482.114 234.598C480.653 235.812 478.849 236.85 476.638 237.655L477.161 243.632ZM484.74 239.348C486.988 237.479 488.797 235.251 490.028 232.659L485.149 230.828C484.527 232.138 483.562 233.395 482.114 234.598L484.74 239.348ZM490.022 232.672C491.332 229.937 491.79 227.101 491.543 224.282L485.905 226.334C486.059 228.097 485.76 229.552 485.155 230.816L490.022 232.672ZM491.543 224.282C491.17 220.014 489.361 216.967 485.993 215.657L483.074 221.688C484.689 222.316 485.674 223.693 485.905 226.334L491.543 224.282ZM486.016 215.666C482.891 214.406 479.217 214.653 475.179 216.123L475.702 222.1C478.799 220.973 481.186 220.927 483.051 221.679L486.016 215.666ZM475.179 216.123L463.036 220.543L463.559 226.52L475.702 222.1L475.179 216.123ZM460.479 224.557L462.349 245.939L467.988 243.887L466.117 222.505L460.479 224.557Z" fill="black" mask="url(#path-7-outside-4_170_76)"/>
<mask id="path-9-outside-5_170_76" maskUnits="userSpaceOnUse" x="487.482" y="157.82" width="114.677" height="156.511" fill="black">
<rect fill="white" x="487.482" y="157.82" width="114.677" height="156.511"/>
<path d="M500.885 310.144L498.842 286.799L501.685 285.313C505.133 283.458 507.892 280.803 509.961 277.349C512.061 273.845 513.477 268.996 514.209 262.801C514.973 256.557 515.09 248.391 514.561 238.303L512.104 190.794L588.458 163.004L598.231 274.713L570.653 284.75L562.941 196.605L540.509 204.77L541.935 240.496C542.457 253.739 541.719 264.72 539.721 273.44C537.723 282.159 534.147 289.22 528.992 294.623C523.837 300.027 516.8 304.351 507.882 307.597L500.885 310.144Z"/>
</mask>
<path d="M500.885 310.144L498.842 286.799L501.685 285.313C505.133 283.458 507.892 280.803 509.961 277.349C512.061 273.845 513.477 268.996 514.209 262.801C514.973 256.557 515.09 248.391 514.561 238.303L512.104 190.794L588.458 163.004L598.231 274.713L570.653 284.75L562.941 196.605L540.509 204.77L541.935 240.496C542.457 253.739 541.719 264.72 539.721 273.44C537.723 282.159 534.147 289.22 528.992 294.623C523.837 300.027 516.8 304.351 507.882 307.597L500.885 310.144Z" fill="#FAD77C"/>
<path d="M500.885 310.144L498.066 311.17L498.327 314.159L501.146 313.133L500.885 310.144ZM498.842 286.799L498.185 283.985L495.796 285.233L496.023 287.825L498.842 286.799ZM501.685 285.313L502.343 288.127L502.362 288.117L502.38 288.107L501.685 285.313ZM509.961 277.349L507.72 276.062L507.719 276.064L509.961 277.349ZM514.209 262.801L511.404 263.123L511.403 263.138L514.209 262.801ZM514.561 238.303L511.734 239.217L511.734 239.219L514.561 238.303ZM512.104 190.794L511.842 187.806L509.126 188.794L509.277 191.709L512.104 190.794ZM588.458 163.004L591.277 161.978L591.016 158.989L588.197 160.015L588.458 163.004ZM598.231 274.713L598.493 277.701L601.312 276.675L601.05 273.687L598.231 274.713ZM570.653 284.75L567.834 285.776L568.096 288.765L570.915 287.739L570.653 284.75ZM562.941 196.605L565.761 195.579L565.499 192.59L562.68 193.616L562.941 196.605ZM540.509 204.77L540.247 201.781L537.565 202.758L537.68 205.646L540.509 204.77ZM541.935 240.496L544.764 239.622L544.764 239.62L541.935 240.496ZM539.721 273.44L536.984 273.375L539.721 273.44ZM528.992 294.623L527.332 292.573L528.992 294.623ZM503.704 309.118L501.661 285.772L496.023 287.825L498.066 311.17L503.704 309.118ZM499.5 289.612L502.343 288.127L501.028 282.5L498.185 283.985L499.5 289.612ZM502.38 288.107C506.41 285.939 509.726 282.768 512.203 278.633L507.719 276.064C506.057 278.838 503.856 280.978 500.99 282.52L502.38 288.107ZM512.202 278.635C514.742 274.398 516.255 268.903 517.016 262.465L511.403 263.138C510.699 269.089 509.38 273.292 507.72 276.062L512.202 278.635ZM517.014 262.479C517.813 255.944 517.921 247.557 517.388 237.386L511.734 239.219C512.259 249.225 512.132 257.171 511.404 263.123L517.014 262.479ZM517.388 237.388L514.931 189.88L509.277 191.709L511.734 239.217L517.388 237.388ZM512.365 193.783L588.72 165.992L588.197 160.015L511.842 187.806L512.365 193.783ZM585.639 164.03L595.412 275.739L601.05 273.687L591.277 161.978L585.639 164.03ZM597.97 271.724L570.392 281.762L570.915 287.739L598.493 277.701L597.97 271.724ZM573.472 283.724L565.761 195.579L560.122 197.631L567.834 285.776L573.472 283.724ZM562.68 193.616L540.247 201.781L540.77 207.758L563.203 199.593L562.68 193.616ZM537.68 205.646L539.107 241.373L544.764 239.62L543.337 203.893L537.68 205.646ZM539.107 241.371C539.622 254.464 538.879 265.102 536.984 273.375L542.458 273.504C544.558 264.338 545.291 253.014 544.764 239.622L539.107 241.371ZM536.984 273.375C535.114 281.537 531.845 287.843 527.332 292.573L530.652 296.674C536.448 290.598 540.332 282.781 542.458 273.504L536.984 273.375ZM527.332 292.573C522.722 297.405 516.23 301.475 507.621 304.609L508.144 310.586C517.371 307.227 524.952 302.648 530.652 296.674L527.332 292.573ZM507.621 304.609L500.623 307.155L501.146 313.133L508.144 310.586L507.621 304.609Z" fill="black" mask="url(#path-9-outside-5_170_76)"/>
<mask id="path-11-outside-6_170_76" maskUnits="userSpaceOnUse" x="582.24" y="125.318" width="93.0645" height="148.645" fill="black">
<rect fill="white" x="582.24" y="125.318" width="93.0645" height="148.645"/>
<path d="M595.383 269.871L585.61 158.161L661.553 130.521L663.691 154.957L616.355 172.186L618.035 191.386L661.46 175.58L663.598 200.017L620.173 215.822L621.853 235.022L668.982 217.868L671.12 242.305L595.383 269.871Z"/>
</mask>
<path d="M595.383 269.871L585.61 158.161L661.553 130.521L663.691 154.957L616.355 172.186L618.035 191.386L661.46 175.58L663.598 200.017L620.173 215.822L621.853 235.022L668.982 217.868L671.12 242.305L595.383 269.871Z" fill="#FAD77C"/>
<path d="M595.383 269.871L592.564 270.897L592.826 273.885L595.645 272.859L595.383 269.871ZM585.61 158.161L585.349 155.173L582.53 156.199L582.791 159.188L585.61 158.161ZM661.553 130.521L664.372 129.495L664.11 126.506L661.291 127.532L661.553 130.521ZM663.691 154.957L663.952 157.946L666.771 156.919L666.51 153.931L663.691 154.957ZM616.355 172.186L616.094 169.197L613.275 170.223L613.536 173.212L616.355 172.186ZM618.035 191.386L615.216 192.412L615.477 195.4L618.296 194.374L618.035 191.386ZM661.46 175.58L664.279 174.554L664.018 171.566L661.199 172.592L661.46 175.58ZM663.598 200.017L663.86 203.005L666.679 201.979L666.417 198.991L663.598 200.017ZM620.173 215.822L619.911 212.833L617.092 213.86L617.354 216.848L620.173 215.822ZM621.853 235.022L619.034 236.048L619.295 239.037L622.114 238.011L621.853 235.022ZM668.982 217.868L671.802 216.842L671.54 213.854L668.721 214.88L668.982 217.868ZM671.12 242.305L671.382 245.293L674.201 244.267L673.939 241.279L671.12 242.305ZM598.202 268.845L588.429 157.135L582.791 159.188L592.564 270.897L598.202 268.845ZM585.872 161.15L661.814 133.509L661.291 127.532L585.349 155.173L585.872 161.15ZM658.734 131.547L660.872 155.983L666.51 153.931L664.372 129.495L658.734 131.547ZM663.429 151.968L616.094 169.197L616.617 175.174L663.952 157.946L663.429 151.968ZM613.536 173.212L615.216 192.412L620.854 190.36L619.174 171.16L613.536 173.212ZM618.296 194.374L661.722 178.569L661.199 172.592L617.773 188.397L618.296 194.374ZM658.641 176.606L660.779 201.043L666.417 198.991L664.279 174.554L658.641 176.606ZM663.337 197.028L619.911 212.833L620.434 218.811L663.86 203.005L663.337 197.028ZM617.354 216.848L619.034 236.048L624.672 233.996L622.992 214.796L617.354 216.848ZM622.114 238.011L669.244 220.857L668.721 214.88L621.591 232.033L622.114 238.011ZM666.163 218.894L668.301 243.331L673.939 241.279L671.802 216.842L666.163 218.894ZM670.859 239.316L595.122 266.882L595.645 272.859L671.382 245.293L670.859 239.316Z" fill="black" mask="url(#path-11-outside-6_170_76)"/>
<mask id="path-13-outside-7_170_76" maskUnits="userSpaceOnUse" x="644.24" y="126.478" width="111.858" height="155.485" fill="black">
<rect fill="white" x="644.24" y="126.478" width="111.858" height="155.485"/>
<path d="M657.383 277.871L647.61 166.161L676.217 155.749L680.035 199.386L717.903 185.603L714.086 141.966L742.693 131.554L752.466 243.263L723.859 253.675L720.041 210.039L682.173 223.822L685.991 267.458L657.383 277.871Z"/>
</mask>
<path d="M657.383 277.871L647.61 166.161L676.217 155.749L680.035 199.386L717.903 185.603L714.086 141.966L742.693 131.554L752.466 243.263L723.859 253.675L720.041 210.039L682.173 223.822L685.991 267.458L657.383 277.871Z" fill="#FAD77C"/>
<path d="M657.383 277.871L654.564 278.897L654.826 281.885L657.645 280.859L657.383 277.871ZM647.61 166.161L647.349 163.173L644.53 164.199L644.791 167.188L647.61 166.161ZM676.217 155.749L679.036 154.723L678.775 151.735L675.956 152.761L676.217 155.749ZM680.035 199.386L677.216 200.412L677.477 203.4L680.296 202.374L680.035 199.386ZM717.903 185.603L718.165 188.591L720.984 187.565L720.723 184.577L717.903 185.603ZM714.086 141.966L713.824 138.978L711.005 140.004L711.267 142.992L714.086 141.966ZM742.693 131.554L745.512 130.528L745.251 127.54L742.431 128.566L742.693 131.554ZM752.466 243.263L752.728 246.252L755.547 245.226L755.285 242.237L752.466 243.263ZM723.859 253.675L721.04 254.701L721.301 257.69L724.12 256.664L723.859 253.675ZM720.041 210.039L722.86 209.013L722.599 206.024L719.78 207.05L720.041 210.039ZM682.173 223.822L681.911 220.833L679.092 221.86L679.354 224.848L682.173 223.822ZM685.991 267.458L686.252 270.447L689.071 269.421L688.81 266.432L685.991 267.458ZM660.202 276.845L650.429 165.135L644.791 167.188L654.564 278.897L660.202 276.845ZM647.872 169.15L676.479 158.738L675.956 152.761L647.349 163.173L647.872 169.15ZM673.398 156.775L677.216 200.412L682.854 198.36L679.036 154.723L673.398 156.775ZM680.296 202.374L718.165 188.591L717.642 182.614L679.773 196.397L680.296 202.374ZM720.723 184.577L716.905 140.94L711.267 142.992L715.084 186.629L720.723 184.577ZM714.347 144.955L742.954 134.543L742.431 128.566L713.824 138.978L714.347 144.955ZM739.874 132.58L749.647 244.289L755.285 242.237L745.512 130.528L739.874 132.58ZM752.205 240.275L723.598 250.687L724.12 256.664L752.728 246.252L752.205 240.275ZM726.678 252.649L722.86 209.013L717.222 211.065L721.04 254.701L726.678 252.649ZM719.78 207.05L681.911 220.833L682.434 226.811L720.303 213.028L719.78 207.05ZM679.354 224.848L683.171 268.484L688.81 266.432L684.992 222.796L679.354 224.848ZM685.729 264.47L657.122 274.882L657.645 280.859L686.252 270.447L685.729 264.47Z" fill="black" mask="url(#path-13-outside-7_170_76)"/>
<mask id="path-15-outside-8_170_76" maskUnits="userSpaceOnUse" x="735.24" y="81.8458" width="108.1" height="154.117" fill="black">
<rect fill="white" x="735.24" y="81.8458" width="108.1" height="154.117"/>
<path d="M738.61 120.161L767.217 109.749L772.333 168.222L773.156 167.922L805.497 95.8165L829.783 86.9774L839.556 198.687L810.949 209.099L805.814 150.408L805.196 150.632L772.257 223.181L748.383 231.871L738.61 120.161Z"/>
</mask>
<path d="M738.61 120.161L767.217 109.749L772.333 168.222L773.156 167.922L805.497 95.8165L829.783 86.9774L839.556 198.687L810.949 209.099L805.814 150.408L805.196 150.632L772.257 223.181L748.383 231.871L738.61 120.161Z" fill="#FAD77C"/>
<path d="M738.61 120.161L738.349 117.173L735.53 118.199L735.791 121.188L738.61 120.161ZM767.217 109.749L770.036 108.723L769.775 105.735L766.956 106.761L767.217 109.749ZM772.333 168.222L769.514 169.248L769.775 172.237L772.594 171.211L772.333 168.222ZM773.156 167.922L773.418 170.911L774.911 170.368L775.635 168.753L773.156 167.922ZM805.497 95.8165L805.236 92.8279L803.743 93.3714L803.018 94.9864L805.497 95.8165ZM829.783 86.9774L832.602 85.9514L832.34 82.9628L829.521 83.9888L829.783 86.9774ZM839.556 198.687L839.817 201.675L842.636 200.649L842.375 197.66L839.556 198.687ZM810.949 209.099L808.13 210.125L808.391 213.113L811.21 212.087L810.949 209.099ZM805.814 150.408L808.633 149.382L808.372 146.393L805.552 147.419L805.814 150.408ZM805.196 150.632L804.935 147.644L803.452 148.184L802.726 149.784L805.196 150.632ZM772.257 223.181L772.518 226.17L774.001 225.63L774.728 224.029L772.257 223.181ZM748.383 231.871L745.564 232.897L745.826 235.885L748.645 234.859L748.383 231.871ZM738.872 123.15L767.479 112.738L766.956 106.761L738.349 117.173L738.872 123.15ZM764.398 110.775L769.514 169.248L775.152 167.196L770.036 108.723L764.398 110.775ZM772.594 171.211L773.418 170.911L772.895 164.934L772.071 165.233L772.594 171.211ZM775.635 168.753L807.976 96.6467L803.018 94.9864L770.677 167.092L775.635 168.753ZM805.759 98.8051L830.044 89.966L829.521 83.9888L805.236 92.8279L805.759 98.8051ZM826.964 88.0035L836.737 199.713L842.375 197.66L832.602 85.9514L826.964 88.0035ZM839.294 195.698L810.687 206.11L811.21 212.087L839.817 201.675L839.294 195.698ZM813.768 208.073L808.633 149.382L802.995 151.434L808.13 210.125L813.768 208.073ZM805.552 147.419L804.935 147.644L805.458 153.621L806.075 153.396L805.552 147.419ZM802.726 149.784L769.786 222.333L774.728 224.029L807.667 151.481L802.726 149.784ZM771.995 220.193L748.122 228.882L748.645 234.859L772.518 226.17L771.995 220.193ZM751.202 230.845L741.429 119.135L735.791 121.188L745.564 232.897L751.202 230.845Z" fill="black" mask="url(#path-15-outside-8_170_76)"/>
<mask id="path-17-outside-9_170_76" maskUnits="userSpaceOnUse" x="2.85712" y="265.975" width="161.428" height="233.324" fill="black">
<rect fill="white" x="2.85712" y="265.975" width="161.428" height="233.324"/>
<path d="M21.5188 494.83L16.0309 432.102L25.2922 428.732C28.2044 425.608 30.7448 421.775 32.9135 417.234C35.125 412.677 36.8135 406.692 37.9789 399.279C39.1872 391.851 39.723 382.299 39.5863 370.624L38.782 309.85L131.91 275.954L141.573 386.409L155.465 381.353L160.953 444.08L126.48 456.627L123.546 423.081L53.0567 448.737L55.9915 482.283L21.5188 494.83ZM66.1964 413.844L107.101 398.956L100.109 319.047L73.6117 328.691L74.059 358.077C74.2064 366.84 73.9387 374.653 73.256 381.515C72.6122 388.315 71.661 394.384 70.4024 399.72C69.1827 404.994 67.7807 409.702 66.1964 413.844Z"/>
</mask>
<path d="M21.5188 494.83L16.0309 432.102L25.2922 428.732C28.2044 425.608 30.7448 421.775 32.9135 417.234C35.125 412.677 36.8135 406.692 37.9789 399.279C39.1872 391.851 39.723 382.299 39.5863 370.624L38.782 309.85L131.91 275.954L141.573 386.409L155.465 381.353L160.953 444.08L126.48 456.627L123.546 423.081L53.0567 448.737L55.9915 482.283L21.5188 494.83ZM66.1964 413.844L107.101 398.956L100.109 319.047L73.6117 328.691L74.059 358.077C74.2064 366.84 73.9387 374.653 73.256 381.515C72.6122 388.315 71.661 394.384 70.4024 399.72C69.1827 404.994 67.7807 409.702 66.1964 413.844Z" fill="#FAD77C"/>
<path d="M21.5188 494.83L18.6998 495.856L18.9612 498.844L21.7803 497.818L21.5188 494.83ZM16.0309 432.102L15.7695 429.114L12.9504 430.14L13.2118 433.128L16.0309 432.102ZM25.2922 428.732L25.5537 431.72L26.3469 431.431L26.9854 430.747L25.2922 428.732ZM32.9135 417.234L30.4895 416.286L30.4835 416.298L30.4776 416.31L32.9135 417.234ZM37.9789 399.279L35.1946 399.456L35.193 399.466L35.1915 399.476L37.9789 399.279ZM39.5863 370.624L42.4173 369.839L42.4172 369.834L39.5863 370.624ZM38.782 309.85L38.5205 306.861L35.9137 307.81L35.9511 310.639L38.782 309.85ZM131.91 275.954L134.729 274.928L134.467 271.94L131.648 272.966L131.91 275.954ZM141.573 386.409L138.754 387.435L139.016 390.423L141.835 389.397L141.573 386.409ZM155.465 381.353L158.284 380.326L158.023 377.338L155.204 378.364L155.465 381.353ZM160.953 444.08L161.215 447.068L164.034 446.042L163.772 443.054L160.953 444.08ZM126.48 456.627L123.661 457.653L123.923 460.641L126.742 459.615L126.48 456.627ZM123.546 423.081L126.365 422.055L126.103 419.067L123.284 420.093L123.546 423.081ZM53.0567 448.737L52.7952 445.749L49.9761 446.775L50.2376 449.763L53.0567 448.737ZM55.9915 482.283L56.253 485.271L59.0721 484.245L58.8106 481.257L55.9915 482.283ZM66.1964 413.844L63.6257 413.234L61.5683 418.612L66.4579 416.832L66.1964 413.844ZM107.101 398.956L107.362 401.944L110.181 400.918L109.92 397.93L107.101 398.956ZM100.109 319.047L102.928 318.021L102.667 315.032L99.8479 316.058L100.109 319.047ZM73.6117 328.691L73.3503 325.702L70.7378 326.653L70.7809 329.487L73.6117 328.691ZM74.059 358.077L71.2282 358.873L71.2283 358.878L74.059 358.077ZM73.256 381.515L70.4421 381.918L70.4412 381.926L70.4404 381.935L73.256 381.515ZM70.4024 399.72L67.671 399.631L67.6691 399.639L67.6671 399.648L70.4024 399.72ZM24.3379 493.804L18.85 431.076L13.2118 433.128L18.6998 495.856L24.3379 493.804ZM16.2924 435.091L25.5537 431.72L25.0308 425.743L15.7695 429.114L16.2924 435.091ZM26.9854 430.747C30.2439 427.251 33.0222 423.031 35.3493 418.157L30.4776 416.31C28.4674 420.52 26.1648 423.964 23.5991 426.717L26.9854 430.747ZM35.3375 418.182C37.7996 413.108 39.5701 406.692 40.7663 399.083L35.1915 399.476C34.0569 406.692 32.4504 412.245 30.4895 416.286L35.3375 418.182ZM40.7632 399.103C42.0189 391.383 42.555 381.608 42.4173 369.839L36.7554 371.408C36.891 382.991 36.3555 392.319 35.1946 399.456L40.7632 399.103ZM42.4172 369.834L41.6129 309.06L35.9511 310.639L36.7555 371.413L42.4172 369.834ZM39.0435 312.838L132.171 278.943L131.648 272.966L38.5205 306.861L39.0435 312.838ZM129.091 276.98L138.754 387.435L144.392 385.383L134.729 274.928L129.091 276.98ZM141.835 389.397L155.727 384.341L155.204 378.364L141.312 383.42L141.835 389.397ZM152.646 382.379L158.134 445.106L163.772 443.054L158.284 380.326L152.646 382.379ZM160.692 441.091L126.219 453.638L126.742 459.615L161.215 447.068L160.692 441.091ZM129.3 455.601L126.365 422.055L120.727 424.107L123.661 457.653L129.3 455.601ZM123.284 420.093L52.7952 445.749L53.3181 451.726L123.807 426.07L123.284 420.093ZM50.2376 449.763L53.1724 483.309L58.8106 481.257L55.8758 447.711L50.2376 449.763ZM55.7301 479.294L21.2574 491.841L21.7803 497.818L56.253 485.271L55.7301 479.294ZM66.4579 416.832L107.362 401.944L106.839 395.967L65.9349 410.855L66.4579 416.832ZM109.92 397.93L102.928 318.021L97.2903 320.073L104.281 399.982L109.92 397.93ZM99.8479 316.058L73.3503 325.702L73.8732 331.68L100.371 322.035L99.8479 316.058ZM70.7809 329.487L71.2282 358.873L76.8898 357.28L76.4425 327.895L70.7809 329.487ZM71.2283 358.878C71.3741 367.548 71.108 375.224 70.4421 381.918L76.07 381.112C76.7694 374.082 77.0387 366.133 76.8897 357.275L71.2283 358.878ZM70.4404 381.935C69.8083 388.612 68.8801 394.505 67.671 399.631L73.1338 399.808C74.442 394.262 75.4161 388.019 76.0716 381.095L70.4404 381.935ZM67.6671 399.648C66.4793 404.785 65.1279 409.308 63.6257 413.234L68.7671 414.453C70.4335 410.097 71.8862 405.204 73.1378 399.791L67.6671 399.648Z" fill="black" mask="url(#path-17-outside-9_170_76)"/>
<mask id="path-19-outside-10_170_76" maskUnits="userSpaceOnUse" x="242.556" y="220.84" width="123.696" height="186.799" fill="black">
<rect fill="white" x="242.556" y="220.84" width="123.696" height="186.799"/>
<path d="M257.957 403.612L245.741 263.976L338.354 230.267L341.026 260.813L284.172 281.506L285.604 297.87L298.981 293.001C310.043 288.974 319.877 287.342 328.482 288.102C337.13 288.848 344.049 291.817 349.237 297.011C354.468 302.189 357.489 309.415 358.3 318.687C359.112 327.96 357.51 336.962 353.496 345.693C349.525 354.408 343.553 362.257 335.581 369.239C327.652 376.205 318.156 381.702 307.094 385.728L257.957 403.612ZM291.116 360.87L304.493 356.001C308.781 354.44 312.317 352.379 315.101 349.818C317.928 347.241 319.977 344.362 321.247 341.179C322.56 337.981 323.069 334.7 322.775 331.336C322.357 326.564 320.318 323.225 316.656 321.322C312.99 319.373 307.942 319.569 301.51 321.91L288.133 326.779L291.116 360.87Z"/>
</mask>
<path d="M257.957 403.612L245.741 263.976L338.354 230.267L341.026 260.813L284.172 281.506L285.604 297.87L298.981 293.001C310.043 288.974 319.877 287.342 328.482 288.102C337.13 288.848 344.049 291.817 349.237 297.011C354.468 302.189 357.489 309.415 358.3 318.687C359.112 327.96 357.51 336.962 353.496 345.693C349.525 354.408 343.553 362.257 335.581 369.239C327.652 376.205 318.156 381.702 307.094 385.728L257.957 403.612ZM291.116 360.87L304.493 356.001C308.781 354.44 312.317 352.379 315.101 349.818C317.928 347.241 319.977 344.362 321.247 341.179C322.56 337.981 323.069 334.7 322.775 331.336C322.357 326.564 320.318 323.225 316.656 321.322C312.99 319.373 307.942 319.569 301.51 321.91L288.133 326.779L291.116 360.87Z" fill="#FAD77C"/>
<path d="M257.957 403.612L255.138 404.638L255.4 407.627L258.219 406.601L257.957 403.612ZM245.741 263.976L245.479 260.987L242.66 262.013L242.922 265.002L245.741 263.976ZM338.354 230.267L341.173 229.241L340.912 226.253L338.092 227.279L338.354 230.267ZM341.026 260.813L341.288 263.801L344.107 262.775L343.845 259.787L341.026 260.813ZM284.172 281.506L283.911 278.517L281.092 279.543L281.353 282.532L284.172 281.506ZM285.604 297.87L282.785 298.896L283.046 301.884L285.865 300.858L285.604 297.87ZM328.482 288.102L327.609 291.253L327.614 291.254L328.482 288.102ZM349.237 297.011L347.088 299.576L347.096 299.584L349.237 297.011ZM353.496 345.693L351.033 344.826L351.027 344.839L353.496 345.693ZM335.581 369.239L334.189 366.932L334.184 366.936L335.581 369.239ZM291.116 360.87L288.296 361.896L288.558 364.884L291.377 363.858L291.116 360.87ZM315.101 349.818L313.649 347.565L313.642 347.571L313.635 347.577L315.101 349.818ZM321.247 341.179L318.714 340.475L318.706 340.494L318.698 340.513L321.247 341.179ZM316.656 321.322L314.982 324.239L314.99 324.244L314.999 324.248L316.656 321.322ZM288.133 326.779L287.872 323.79L285.052 324.816L285.314 327.805L288.133 326.779ZM260.776 402.586L248.56 262.95L242.922 265.002L255.138 404.638L260.776 402.586ZM246.002 266.964L338.615 233.256L338.092 227.279L245.479 260.987L246.002 266.964ZM335.535 231.293L338.207 261.839L343.845 259.787L341.173 229.241L335.535 231.293ZM340.765 257.824L283.911 278.517L284.434 284.495L341.288 263.801L340.765 257.824ZM281.353 282.532L282.785 298.896L288.423 296.844L286.991 280.48L281.353 282.532ZM285.865 300.858L299.243 295.989L298.72 290.012L285.342 294.881L285.865 300.858ZM299.243 295.989C310.007 292.071 319.443 290.531 327.609 291.253L329.356 284.952C320.311 284.152 310.08 285.877 298.72 290.012L299.243 295.989ZM327.614 291.254C335.836 291.962 342.285 294.768 347.088 299.576L351.386 294.446C345.812 288.866 338.425 285.733 329.351 284.951L327.614 291.254ZM347.096 299.584C351.902 304.342 354.719 311 355.481 319.713L361.12 317.661C360.259 307.83 357.034 300.037 351.378 294.438L347.096 299.584ZM355.481 319.713C356.244 328.427 354.739 336.767 351.034 344.826L355.958 346.56C360.281 337.157 361.98 327.494 361.12 317.661L355.481 319.713ZM351.027 344.839C347.341 352.929 341.77 360.292 334.189 366.932L336.973 371.546C345.336 364.221 351.708 355.887 355.964 346.546L351.027 344.839ZM334.184 366.936C326.671 373.536 317.58 378.827 306.832 382.739L307.355 388.717C318.731 384.576 328.632 378.874 336.978 371.542L334.184 366.936ZM306.832 382.739L257.696 400.624L258.219 406.601L307.355 388.717L306.832 382.739ZM291.377 363.858L304.754 358.989L304.232 353.012L290.854 357.881L291.377 363.858ZM304.754 358.989C309.337 357.321 313.318 355.047 316.567 352.059L313.635 347.577C311.315 349.711 308.225 351.559 304.232 353.012L304.754 358.989ZM316.553 352.071C319.792 349.12 322.255 345.706 323.796 341.845L318.698 340.513C317.699 343.017 316.065 345.363 313.649 347.565L316.553 352.071ZM323.78 341.883C325.348 338.063 325.933 334.182 325.594 330.31L319.956 332.362C320.206 335.218 319.771 337.899 318.714 340.475L323.78 341.883ZM325.594 330.31C325.101 324.676 322.639 320.644 318.314 318.396L314.999 324.248C317.997 325.806 319.614 328.451 319.956 332.362L325.594 330.31ZM318.33 318.405C313.911 316.055 308.082 316.434 301.249 318.921L301.772 324.898C307.802 322.704 312.07 322.691 314.982 324.239L318.33 318.405ZM301.249 318.921L287.872 323.79L288.394 329.767L301.772 324.898L301.249 318.921ZM285.314 327.805L288.296 361.896L293.935 359.844L290.952 325.753L285.314 327.805Z" fill="black" mask="url(#path-19-outside-10_170_76)"/>
<mask id="path-21-outside-11_170_76" maskUnits="userSpaceOnUse" x="140.873" y="262.648" width="147.449" height="198.338" fill="black">
<rect fill="white" x="140.873" y="262.648" width="147.449" height="198.338"/>
<path d="M278.299 338.818C279.654 354.305 277.956 368.402 273.206 381.111C268.453 393.775 261.489 404.603 252.315 413.595C243.137 422.542 232.611 429.177 220.737 433.499C208.777 437.852 197.731 439.046 187.598 437.08C177.504 435.054 169.154 429.776 162.546 421.248C155.977 412.659 152.018 400.667 150.672 385.271C149.317 369.784 150.995 355.717 155.706 343.069C160.456 330.36 167.398 319.54 176.533 310.608C185.707 301.616 196.274 294.943 208.234 290.59C220.108 286.268 231.111 285.09 241.244 287.056C251.373 288.976 259.743 294.223 266.355 302.796C272.963 311.325 276.944 323.332 278.299 338.818ZM241.651 352.157C240.922 343.825 239.261 337.187 236.669 332.244C234.116 327.239 230.682 324.004 226.366 322.537C222.09 321.01 217.004 321.319 211.11 323.465C205.215 325.61 200.37 328.915 196.574 333.381C192.816 337.786 190.143 343.244 188.553 349.757C187.002 356.208 186.591 363.6 187.32 371.932C188.048 380.264 189.69 386.932 192.243 391.937C194.835 396.88 198.269 400.116 202.546 401.643C206.861 403.109 211.966 402.77 217.861 400.624C223.755 398.479 228.581 395.204 232.338 390.799C236.135 386.334 238.808 380.875 240.36 374.424C241.949 367.911 242.38 360.489 241.651 352.157Z"/>
</mask>
<path d="M278.299 338.818C279.654 354.305 277.956 368.402 273.206 381.111C268.453 393.775 261.489 404.603 252.315 413.595C243.137 422.542 232.611 429.177 220.737 433.499C208.777 437.852 197.731 439.046 187.598 437.08C177.504 435.054 169.154 429.776 162.546 421.248C155.977 412.659 152.018 400.667 150.672 385.271C149.317 369.784 150.995 355.717 155.706 343.069C160.456 330.36 167.398 319.54 176.533 310.608C185.707 301.616 196.274 294.943 208.234 290.59C220.108 286.268 231.111 285.09 241.244 287.056C251.373 288.976 259.743 294.223 266.355 302.796C272.963 311.325 276.944 323.332 278.299 338.818ZM241.651 352.157C240.922 343.825 239.261 337.187 236.669 332.244C234.116 327.239 230.682 324.004 226.366 322.537C222.09 321.01 217.004 321.319 211.11 323.465C205.215 325.61 200.37 328.915 196.574 333.381C192.816 337.786 190.143 343.244 188.553 349.757C187.002 356.208 186.591 363.6 187.32 371.932C188.048 380.264 189.69 386.932 192.243 391.937C194.835 396.88 198.269 400.116 202.546 401.643C206.861 403.109 211.966 402.77 217.861 400.624C223.755 398.479 228.581 395.204 232.338 390.799C236.135 386.334 238.808 380.875 240.36 374.424C241.949 367.911 242.38 360.489 241.651 352.157Z" fill="#FAD77C"/>
<path d="M273.206 381.111L275.786 381.696L275.789 381.69L273.206 381.111ZM252.315 413.595L253.868 415.754L253.876 415.746L252.315 413.595ZM187.598 437.08L186.484 440.196L186.491 440.198L186.498 440.199L187.598 437.08ZM162.546 421.248L160.216 423.606L160.22 423.611L160.224 423.617L162.546 421.248ZM155.706 343.069L153.124 342.49L153.122 342.495L155.706 343.069ZM176.533 310.608L178.091 312.763L178.095 312.759L176.533 310.608ZM241.244 287.056L240.144 290.175L240.153 290.176L241.244 287.056ZM266.355 302.796L264.03 305.161L264.033 305.165L266.355 302.796ZM236.669 332.244L234.125 334.26L234.131 334.272L234.137 334.283L236.669 332.244ZM226.366 322.537L224.96 325.573L224.975 325.578L224.99 325.583L226.366 322.537ZM196.574 333.381L198.392 335.256L198.397 335.25L196.574 333.381ZM188.553 349.757L185.828 349.638L185.825 349.652L188.553 349.757ZM192.243 391.937L189.698 393.953L189.704 393.965L189.71 393.976L192.243 391.937ZM202.546 401.643L201.14 404.678L201.155 404.684L201.17 404.689L202.546 401.643ZM232.338 390.799L234.157 392.674L234.162 392.668L232.338 390.799ZM240.36 374.424L237.635 374.305L237.632 374.318L240.36 374.424ZM275.48 339.844C276.801 354.95 275.127 368.484 270.624 380.532L275.789 381.69C280.785 368.32 282.506 353.659 281.118 337.792L275.48 339.844ZM270.626 380.526C266.081 392.634 259.459 402.911 250.754 411.445L253.876 415.746C263.518 406.294 270.824 394.915 275.786 381.696L270.626 380.526ZM250.762 411.437C242.004 419.975 231.929 426.341 220.475 430.51L220.998 436.487C233.293 432.013 244.27 425.11 253.868 415.753L250.762 411.437ZM220.475 430.51C208.936 434.71 198.362 435.836 188.698 433.961L186.498 440.199C197.099 442.255 208.618 440.993 220.998 436.487L220.475 430.51ZM188.712 433.964C179.13 432.04 171.189 427.038 164.867 418.879L160.224 423.617C167.118 432.515 175.878 438.067 186.484 440.196L188.712 433.964ZM164.875 418.89C158.645 410.744 154.804 399.26 153.491 384.245L147.852 386.297C149.233 402.074 153.308 414.574 160.216 423.606L164.875 418.89ZM153.491 384.245C152.169 369.135 153.825 355.63 158.29 343.644L153.122 342.495C148.164 355.804 146.465 370.434 147.852 386.297L153.491 384.245ZM158.288 343.648C162.831 331.493 169.431 321.229 178.091 312.763L174.976 308.454C165.365 317.851 158.08 329.228 153.124 342.49L158.288 343.648ZM178.095 312.759C186.844 304.182 196.956 297.779 208.495 293.579L207.972 287.602C195.592 292.108 184.57 299.05 174.972 308.458L178.095 312.759ZM208.495 293.579C219.945 289.411 230.477 288.299 240.144 290.175L242.344 283.937C231.746 281.881 220.271 283.125 207.972 287.602L208.495 293.579ZM240.153 290.176C249.756 291.997 257.708 296.964 264.03 305.161L268.679 300.431C261.777 291.482 252.99 285.955 242.335 283.935L240.153 290.176ZM264.033 305.165C270.294 313.246 274.158 324.738 275.48 339.844L281.118 337.792C279.73 321.926 275.631 309.404 268.676 300.428L264.033 305.165ZM244.47 351.131C243.72 342.554 241.996 335.534 239.202 330.204L234.137 334.283C236.526 338.841 238.124 345.097 238.832 353.183L244.47 351.131ZM239.214 330.227C236.453 324.816 232.65 321.159 227.742 319.491L224.99 325.583C228.713 326.848 231.779 329.662 234.125 334.26L239.214 330.227ZM227.772 319.502C222.896 317.76 217.203 318.163 210.848 320.476L211.371 326.453C216.805 324.475 221.284 324.26 224.96 325.573L227.772 319.502ZM210.848 320.476C204.492 322.789 199.068 326.433 194.751 331.512L198.397 335.25C201.672 331.398 205.939 328.431 211.371 326.453L210.848 320.476ZM194.755 331.506C190.485 336.513 187.543 342.615 185.829 349.638L191.277 349.875C192.742 343.873 195.148 339.059 198.392 335.255L194.755 331.506ZM185.825 349.652C184.155 356.6 183.751 364.386 184.5 372.958L190.139 370.906C189.431 362.814 189.848 355.817 191.28 349.862L185.825 349.652ZM184.5 372.958C185.25 381.531 186.952 388.571 189.698 393.953L194.788 389.92C192.427 385.293 190.846 378.997 190.139 370.906L184.5 372.958ZM189.71 393.976C192.507 399.31 196.298 402.949 201.14 404.678L203.952 398.607C200.241 397.282 197.163 394.451 194.776 389.897L189.71 393.976ZM201.17 404.689C206.076 406.356 211.774 405.923 218.122 403.613L217.599 397.636C212.158 399.616 207.646 399.863 203.922 398.597L201.17 404.689ZM218.122 403.613C224.468 401.303 229.874 397.695 234.157 392.674L230.52 388.925C227.288 392.713 223.041 395.655 217.599 397.636L218.122 403.613ZM234.162 392.668C238.463 387.609 241.409 381.508 243.087 374.529L237.632 374.318C236.208 380.242 233.807 385.059 230.515 388.93L234.162 392.668ZM243.084 374.542C244.795 367.531 245.22 359.709 244.47 351.131L238.832 353.183C239.539 361.268 239.103 368.291 237.635 374.305L243.084 374.542Z" fill="black" mask="url(#path-21-outside-11_170_76)"/>
<mask id="path-23-outside-12_170_76" maskUnits="userSpaceOnUse" x="824.24" y="48.318" width="93.0645" height="148.645" fill="black">
<rect fill="white" x="824.24" y="48.318" width="93.0645" height="148.645"/>
<path d="M837.383 192.87L827.61 81.1614L903.553 53.5205L905.691 77.9568L858.355 95.1856L860.035 114.386L903.46 98.5801L905.598 123.016L862.173 138.822L863.853 158.022L910.982 140.868L913.12 165.304L837.383 192.87Z"/>
</mask>
<path d="M837.383 192.87L827.61 81.1614L903.553 53.5205L905.691 77.9568L858.355 95.1856L860.035 114.386L903.46 98.5801L905.598 123.016L862.173 138.822L863.853 158.022L910.982 140.868L913.12 165.304L837.383 192.87Z" fill="#FAD77C"/>
<path d="M837.383 192.87L834.564 193.897L834.826 196.885L837.645 195.859L837.383 192.87ZM827.61 81.1614L827.349 78.1728L824.53 79.1988L824.791 82.1874L827.61 81.1614ZM903.553 53.5205L906.372 52.4944L906.11 49.5058L903.291 50.5319L903.553 53.5205ZM905.691 77.9568L905.952 80.9454L908.771 79.9194L908.51 76.9308L905.691 77.9568ZM858.355 95.1856L858.094 92.197L855.275 93.2231L855.536 96.2116L858.355 95.1856ZM860.035 114.386L857.216 115.412L857.477 118.4L860.296 117.374L860.035 114.386ZM903.46 98.5801L906.279 97.554L906.018 94.5654L903.199 95.5915L903.46 98.5801ZM905.598 123.016L905.86 126.005L908.679 124.979L908.417 121.99L905.598 123.016ZM862.173 138.822L861.911 135.833L859.092 136.859L859.354 139.848L862.173 138.822ZM863.853 158.022L861.034 159.048L861.295 162.037L864.114 161.011L863.853 158.022ZM910.982 140.868L913.802 139.842L913.54 136.853L910.721 137.88L910.982 140.868ZM913.12 165.304L913.382 168.293L916.201 167.267L915.939 164.278L913.12 165.304ZM840.202 191.844L830.429 80.1353L824.791 82.1874L834.564 193.897L840.202 191.844ZM827.872 84.1499L903.814 56.509L903.291 50.5319L827.349 78.1728L827.872 84.1499ZM900.734 54.5465L902.872 78.9829L908.51 76.9308L906.372 52.4944L900.734 54.5465ZM905.429 74.9682L858.094 92.197L858.617 98.1742L905.952 80.9454L905.429 74.9682ZM855.536 96.2116L857.216 115.412L862.854 113.36L861.174 94.1595L855.536 96.2116ZM860.296 117.374L903.722 101.569L903.199 95.5915L859.773 111.397L860.296 117.374ZM900.641 99.6061L902.779 124.042L908.417 121.99L906.279 97.554L900.641 99.6061ZM905.337 120.028L861.911 135.833L862.434 141.811L905.86 126.005L905.337 120.028ZM859.354 139.848L861.034 159.048L866.672 156.996L864.992 137.796L859.354 139.848ZM864.114 161.011L911.244 143.857L910.721 137.88L863.591 155.033L864.114 161.011ZM908.163 141.894L910.301 166.331L915.939 164.278L913.802 139.842L908.163 141.894ZM912.859 162.316L837.122 189.882L837.645 195.859L913.382 168.293L912.859 162.316Z" fill="black" mask="url(#path-23-outside-12_170_76)"/>
</svg>
