<svg width="490" height="328" viewBox="0 0 490 328" fill="none" xmlns="http://www.w3.org/2000/svg">
<mask id="path-1-outside-1_69_290" maskUnits="userSpaceOnUse" x="387.453" y="43.3077" width="54.8472" height="135.996" fill="black">
<rect fill="white" x="387.453" y="43.3077" width="54.8472" height="135.996"/>
<path d="M438.264 47.5965L423.793 127.481L399.525 136.314L408.461 58.4437L438.264 47.5965ZM406.073 169.544C401.958 171.042 398.652 170.814 396.156 168.861C393.701 166.857 392.815 163.664 393.499 159.281C394.096 155.037 396.073 150.872 399.431 146.788C402.825 142.691 406.579 139.894 410.695 138.396C414.597 136.976 417.814 137.236 420.346 139.176C422.913 141.103 423.898 144.189 423.302 148.434C422.834 151.36 421.713 154.277 419.94 157.183C418.207 160.04 416.117 162.584 413.672 164.817C411.231 167.013 408.699 168.588 406.073 169.544Z"/>
</mask>
<path d="M438.264 47.5965L423.793 127.481L399.525 136.314L408.461 58.4437L438.264 47.5965ZM406.073 169.544C401.958 171.042 398.652 170.814 396.156 168.861C393.701 166.857 392.815 163.664 393.499 159.281C394.096 155.037 396.073 150.872 399.431 146.788C402.825 142.691 406.579 139.894 410.695 138.396C414.597 136.976 417.814 137.236 420.346 139.176C422.913 141.103 423.898 144.189 423.302 148.434C422.834 151.36 421.713 154.277 419.94 157.183C418.207 160.04 416.117 162.584 413.672 164.817C411.231 167.013 408.699 168.588 406.073 169.544Z" fill="#FAD77C"/>
<path d="M438.264 47.5965L441.064 46.6807L441.629 43.5644L438.704 44.629L438.264 47.5965ZM423.793 127.481L423.352 130.449L426.069 129.46L426.594 126.565L423.793 127.481ZM399.525 136.314L396.692 137.449L396.368 140.27L399.085 139.281L399.525 136.314ZM408.461 58.4438L408.901 55.4762L405.976 56.5409L405.628 59.5786L408.461 58.4438ZM396.156 168.861L393.851 171.684L393.861 171.693L393.872 171.701L396.156 168.861ZM393.499 159.281L396.315 158.281L396.319 158.255L396.322 158.229L393.499 159.281ZM399.431 146.788L397.777 145.381L397.77 145.39L397.763 145.398L399.431 146.788ZM420.346 139.176L418.072 142.024L418.077 142.028L418.082 142.032L420.346 139.176ZM423.302 148.434L426.115 147.446L426.12 147.414L426.125 147.382L423.302 148.434ZM419.94 157.183L417.782 156.481L417.774 156.494L419.94 157.183ZM413.672 164.817L414.72 166.856L414.735 166.842L414.751 166.828L413.672 164.817ZM435.463 48.5124L420.992 128.397L426.594 126.565L441.064 46.6807L435.463 48.5124ZM424.233 124.514L399.965 133.346L399.085 139.281L423.352 130.449L424.233 124.514ZM402.358 135.179L411.294 57.3089L405.628 59.5786L396.692 137.449L402.358 135.179ZM408.021 61.4113L437.823 50.564L438.704 44.629L408.901 55.4762L408.021 61.4113ZM406.513 166.576C403.133 167.806 400.489 167.624 398.44 166.02L393.872 171.701C396.814 174.004 400.782 174.277 405.633 172.511L406.513 166.576ZM398.461 166.037C396.461 164.405 395.754 161.873 396.315 158.281L390.684 160.282C389.877 165.455 390.941 169.309 393.851 171.684L398.461 166.037ZM396.322 158.229C396.805 154.794 398.359 151.511 401.099 148.178L397.763 145.398C393.787 150.234 391.386 155.279 390.676 160.333L396.322 158.229ZM401.085 148.195C403.871 144.831 406.874 142.594 410.254 141.364L411.135 135.428C406.284 137.194 401.778 140.551 397.777 145.381L401.085 148.195ZM410.254 141.364C413.38 140.226 415.957 140.403 418.072 142.024L422.62 136.328C419.672 134.068 415.815 133.725 411.135 135.428L410.254 141.364ZM418.082 142.032C420.195 143.619 420.959 146.068 420.479 149.486L426.125 147.382C426.837 142.311 425.63 138.588 422.609 136.32L418.082 142.032ZM420.489 149.422C420.105 151.822 419.202 154.154 417.782 156.481L422.097 157.886C424.224 154.4 425.563 150.899 426.115 147.446L420.489 149.422ZM417.774 156.494C416.334 158.868 414.616 160.959 412.593 162.806L414.751 166.828C417.619 164.21 420.079 161.212 422.105 157.873L417.774 156.494ZM412.624 162.778C410.662 164.543 408.644 165.801 406.513 166.576L405.633 172.511C408.754 171.375 411.801 169.483 414.72 166.856L412.624 162.778Z" fill="black" mask="url(#path-1-outside-1_69_290)"/>
<mask id="path-3-outside-2_69_290" maskUnits="userSpaceOnUse" x="423.872" y="15.2585" width="59.0204" height="137.337" fill="black">
<rect fill="white" x="423.872" y="15.2585" width="59.0204" height="137.337"/>
<path d="M479.059 20.1457L461.955 100.46L437.433 109.385L448.944 31.1066L479.059 20.1457ZM442.866 142.768C438.707 144.282 435.414 144.06 432.987 142.102C430.603 140.093 429.825 136.886 430.653 132.48C431.39 128.213 433.502 124.023 436.991 119.912C440.515 115.788 444.357 112.969 448.515 111.455C452.459 110.02 455.662 110.275 458.125 112.22C460.623 114.152 461.505 117.252 460.768 121.519C460.204 124.46 458.988 127.394 457.12 130.319C455.295 133.193 453.125 135.754 450.609 138.003C448.1 140.214 445.519 141.803 442.866 142.768Z"/>
</mask>
<path d="M479.059 20.1457L461.955 100.46L437.433 109.385L448.944 31.1066L479.059 20.1457ZM442.866 142.768C438.707 144.282 435.414 144.06 432.987 142.102C430.603 140.093 429.825 136.886 430.653 132.48C431.39 128.213 433.502 124.023 436.991 119.912C440.515 115.788 444.357 112.969 448.515 111.455C452.459 110.02 455.662 110.275 458.125 112.22C460.623 114.152 461.505 117.252 460.768 121.519C460.204 124.46 458.988 127.394 457.12 130.319C455.295 133.193 453.125 135.754 450.609 138.003C448.1 140.214 445.519 141.803 442.866 142.768Z" fill="#FAD77C"/>
<path d="M479.059 20.1457L481.856 19.2293L482.516 16.1287L479.591 17.1934L479.059 20.1457ZM461.955 100.46L461.422 103.412L464.139 102.423L464.753 99.5434L461.955 100.46ZM437.433 109.385L434.596 110.519L434.183 113.326L436.9 112.337L437.433 109.385ZM448.944 31.1066L449.476 28.1543L446.551 29.2189L446.107 32.2409L448.944 31.1066ZM432.987 142.102L430.617 144.915L430.627 144.923L430.637 144.931L432.987 142.102ZM430.653 132.48L433.468 131.479L433.473 131.453L433.477 131.428L430.653 132.48ZM436.991 119.912L435.403 118.516L435.396 118.524L435.389 118.533L436.991 119.912ZM458.125 112.22L455.785 115.057L455.789 115.061L455.794 115.065L458.125 112.22ZM460.768 121.519L463.58 120.531L463.586 120.499L463.592 120.467L460.768 121.519ZM457.12 130.319L455.012 129.624L455.004 129.637L457.12 130.319ZM450.609 138.003L451.577 140.029L451.593 140.015L451.609 140.001L450.609 138.003ZM476.261 21.0621L459.158 101.376L464.753 99.5434L481.856 19.2293L476.261 21.0621ZM462.488 97.5075L437.966 106.433L436.9 112.337L461.422 103.412L462.488 97.5075ZM440.27 108.251L451.78 29.9723L446.107 32.2409L434.596 110.519L440.27 108.251ZM448.411 34.0589L478.526 23.098L479.591 17.1934L449.476 28.1543L448.411 34.0589ZM443.398 139.816C439.975 141.062 437.335 140.884 435.337 139.272L430.637 144.931C433.493 147.236 437.439 147.502 442.333 145.721L443.398 139.816ZM435.357 139.289C433.411 137.649 432.787 135.099 433.468 131.479L427.839 133.481C426.863 138.672 427.795 142.537 430.617 144.915L435.357 139.289ZM433.477 131.428C434.074 127.966 435.74 124.654 438.593 121.292L435.389 118.533C431.265 123.393 428.705 128.459 427.83 133.532L433.477 131.428ZM438.578 121.309C441.479 117.914 444.559 115.654 447.983 114.408L449.048 108.503C444.154 110.284 439.551 113.662 435.403 118.516L438.578 121.309ZM447.983 114.408C451.149 113.255 453.723 113.429 455.785 115.057L460.465 109.383C457.601 107.121 453.769 106.785 449.048 108.503L447.983 114.408ZM455.794 115.065C457.856 116.659 458.539 119.126 457.945 122.571L463.592 120.467C464.47 115.377 463.391 111.645 460.455 109.375L455.794 115.065ZM457.956 122.507C457.492 124.925 456.511 127.276 455.012 129.624L459.229 131.013C461.465 127.511 462.915 123.996 463.58 120.531L457.956 122.507ZM455.004 129.637C453.484 132.031 451.695 134.14 449.609 136.005L451.609 140.001C454.555 137.368 457.107 134.355 459.237 131L455.004 129.637ZM449.641 135.977C447.619 137.759 445.556 139.031 443.398 139.816L442.333 145.721C445.481 144.575 448.581 142.67 451.577 140.029L449.641 135.977Z" fill="black" mask="url(#path-3-outside-2_69_290)"/>
<mask id="path-5-outside-3_69_290" maskUnits="userSpaceOnUse" x="260.482" y="61.6894" width="131.126" height="188.539" fill="black">
<rect fill="white" x="260.482" y="61.6894" width="131.126" height="188.539"/>
<path d="M276.233 245.98L271.842 195.798L279.251 193.102C281.581 190.603 283.613 187.537 285.348 183.904C287.117 180.258 288.468 175.47 289.401 169.54C290.367 163.598 290.796 155.956 290.687 146.615L290.043 97.9965L364.545 70.88L372.276 159.244L383.39 155.199L387.78 205.38L360.202 215.418L357.854 188.582L301.463 209.106L303.811 235.943L276.233 245.98ZM311.975 181.192L344.698 169.281L339.105 105.354L317.907 113.069L318.265 136.578C318.383 143.589 318.168 149.839 317.622 155.328C317.107 160.769 316.346 165.624 315.339 169.892C314.364 174.112 313.242 177.879 311.975 181.192Z"/>
</mask>
<path d="M276.233 245.98L271.842 195.798L279.251 193.102C281.581 190.603 283.613 187.537 285.348 183.904C287.117 180.258 288.468 175.47 289.401 169.54C290.367 163.598 290.796 155.956 290.687 146.615L290.043 97.9965L364.545 70.88L372.276 159.244L383.39 155.199L387.78 205.38L360.202 215.418L357.854 188.582L301.463 209.106L303.811 235.943L276.233 245.98ZM311.975 181.192L344.698 169.281L339.105 105.354L317.907 113.069L318.265 136.578C318.383 143.589 318.168 149.839 317.622 155.328C317.107 160.769 316.346 165.624 315.339 169.892C314.364 174.112 313.242 177.879 311.975 181.192Z" fill="#FAD77C"/>
<path d="M276.233 245.98L273.413 247.006L273.675 249.995L276.494 248.969L276.233 245.98ZM271.842 195.798L271.581 192.81L268.762 193.836L269.023 196.825L271.842 195.798ZM279.251 193.102L279.513 196.09L280.306 195.802L280.944 195.117L279.251 193.102ZM285.348 183.904L282.924 182.956L282.918 182.968L282.912 182.98L285.348 183.904ZM289.401 169.54L286.616 169.717L286.615 169.727L286.613 169.736L289.401 169.54ZM290.687 146.615L293.517 145.831L293.517 145.826L290.687 146.615ZM290.043 97.9965L289.782 95.0079L287.175 95.9567L287.212 98.786L290.043 97.9965ZM364.545 70.88L367.364 69.8539L367.103 66.8653L364.284 67.8914L364.545 70.88ZM372.276 159.244L369.457 160.27L369.718 163.258L372.537 162.232L372.276 159.244ZM383.39 155.199L386.209 154.173L385.947 151.184L383.128 152.21L383.39 155.199ZM387.78 205.38L388.041 208.369L390.86 207.343L390.599 204.354L387.78 205.38ZM360.202 215.418L357.383 216.444L357.644 219.433L360.463 218.407L360.202 215.418ZM357.854 188.582L360.673 187.556L360.412 184.567L357.592 185.593L357.854 188.582ZM301.463 209.106L301.201 206.118L298.382 207.144L298.644 210.132L301.463 209.106ZM303.811 235.943L304.072 238.931L306.891 237.905L306.63 234.917L303.811 235.943ZM311.975 181.192L309.404 180.582L307.346 185.96L312.236 184.18L311.975 181.192ZM344.698 169.281L344.959 172.27L347.778 171.244L347.517 168.255L344.698 169.281ZM339.105 105.354L341.924 104.328L341.663 101.339L338.843 102.365L339.105 105.354ZM317.907 113.069L317.645 110.081L315.033 111.032L315.076 113.865L317.907 113.069ZM318.265 136.578L315.434 137.374L315.434 137.379L318.265 136.578ZM317.622 155.328L314.808 155.731L314.807 155.74L314.807 155.749L317.622 155.328ZM315.339 169.892L312.608 169.804L312.606 169.812L312.604 169.82L315.339 169.892ZM279.052 244.954L274.661 194.772L269.023 196.825L273.413 247.006L279.052 244.954ZM272.104 198.787L279.513 196.09L278.99 190.113L271.581 192.81L272.104 198.787ZM280.944 195.117C283.62 192.246 285.891 188.792 287.784 184.827L282.912 182.98C281.336 186.282 279.541 188.959 277.558 191.087L280.944 195.117ZM287.772 184.852C289.792 180.69 291.225 175.47 292.188 169.344L286.613 169.736C285.712 175.471 284.443 179.826 282.924 182.956L287.772 184.852ZM292.185 169.363C293.199 163.129 293.628 155.264 293.517 145.831L287.856 147.4C287.964 156.647 287.536 164.066 286.616 169.717L292.185 169.363ZM293.517 145.826L292.874 97.207L287.212 98.786L287.856 147.405L293.517 145.826ZM290.304 100.985L364.807 73.8685L364.284 67.8914L289.782 95.0079L290.304 100.985ZM361.726 71.906L369.457 160.27L375.095 158.218L367.364 69.8539L361.726 71.906ZM372.537 162.232L383.651 158.187L383.128 152.21L372.015 156.255L372.537 162.232ZM380.57 156.225L384.961 206.406L390.599 204.354L386.209 154.173L380.57 156.225ZM387.518 202.392L359.94 212.429L360.463 218.407L388.041 208.369L387.518 202.392ZM363.021 214.392L360.673 187.556L355.035 189.608L357.383 216.444L363.021 214.392ZM357.592 185.593L301.201 206.118L301.724 212.095L358.115 191.57L357.592 185.593ZM298.644 210.132L300.992 236.969L306.63 234.917L304.282 208.08L298.644 210.132ZM303.549 232.954L275.971 242.992L276.494 248.969L304.072 238.931L303.549 232.954ZM312.236 184.18L344.959 172.27L344.436 166.293L311.713 178.203L312.236 184.18ZM347.517 168.255L341.924 104.328L336.286 106.38L341.879 170.307L347.517 168.255ZM338.843 102.365L317.645 110.081L318.168 116.058L339.366 108.343L338.843 102.365ZM315.076 113.865L315.434 137.374L321.095 135.782L320.738 112.273L315.076 113.865ZM315.434 137.379C315.55 144.297 315.338 150.41 314.808 155.731L320.436 154.926C320.999 149.268 321.215 142.881 321.095 135.776L315.434 137.379ZM314.807 155.749C314.303 161.065 313.565 165.745 312.608 169.804L318.071 169.981C319.127 165.502 319.911 160.473 320.438 154.908L314.807 155.749ZM312.604 169.82C311.66 173.902 310.589 177.484 309.404 180.582L314.545 181.801C315.895 178.273 317.067 174.322 318.075 169.964L312.604 169.82Z" fill="black" mask="url(#path-5-outside-3_69_290)"/>
<mask id="path-7-outside-4_69_290" maskUnits="userSpaceOnUse" x="7.55558" y="114.552" width="127.454" height="188.167" fill="black">
<rect fill="white" x="7.55558" y="114.552" width="127.454" height="188.167"/>
<path d="M22.9574 298.692L10.7408 159.056L67.8522 138.269C77.8853 134.617 86.4358 132.983 93.5037 133.365C100.614 133.732 106.135 135.897 110.065 139.86C114.039 143.808 116.335 149.327 116.956 156.418C117.405 161.554 116.743 166.626 114.969 171.634C113.238 176.626 110.589 181.248 107.024 185.5C103.454 189.707 99.1663 193.285 94.1595 196.233L94.2788 197.597C99.9584 195.764 105.237 195.414 110.114 196.547C114.987 197.634 119.011 200.133 122.184 204.043C125.354 207.908 127.227 213.136 127.804 219.727C128.472 227.363 127.18 234.845 123.927 242.173C120.718 249.485 115.811 256.102 109.206 262.024C102.601 267.946 94.5182 272.646 84.9568 276.127L22.9574 298.692ZM56.0679 255.405L72.7897 249.318C78.7924 247.133 83.191 244.313 85.9856 240.857C88.7762 237.356 89.9666 233.264 89.557 228.582C89.2707 225.309 88.3207 222.794 86.7069 221.036C85.0931 219.279 82.9268 218.285 80.208 218.055C77.532 217.809 74.3718 218.35 70.7273 219.676L53.4909 225.95L56.0679 255.405ZM51.4389 202.495L66.1027 197.158C69.2326 196.019 71.9524 194.49 74.2621 192.57C76.5717 190.651 78.3056 188.472 79.4637 186.034C80.6608 183.534 81.1341 180.853 80.8835 177.989C80.5057 173.671 78.7596 170.906 75.6452 169.695C72.5268 168.438 68.738 168.621 64.2788 170.244L49.1006 175.768L51.4389 202.495Z"/>
</mask>
<path d="M22.9574 298.692L10.7408 159.056L67.8522 138.269C77.8853 134.617 86.4358 132.983 93.5037 133.365C100.614 133.732 106.135 135.897 110.065 139.86C114.039 143.808 116.335 149.327 116.956 156.418C117.405 161.554 116.743 166.626 114.969 171.634C113.238 176.626 110.589 181.248 107.024 185.5C103.454 189.707 99.1663 193.285 94.1595 196.233L94.2788 197.597C99.9584 195.764 105.237 195.414 110.114 196.547C114.987 197.634 119.011 200.133 122.184 204.043C125.354 207.908 127.227 213.136 127.804 219.727C128.472 227.363 127.18 234.845 123.927 242.173C120.718 249.485 115.811 256.102 109.206 262.024C102.601 267.946 94.5182 272.646 84.9568 276.127L22.9574 298.692ZM56.0679 255.405L72.7897 249.318C78.7924 247.133 83.191 244.313 85.9856 240.857C88.7762 237.356 89.9666 233.264 89.557 228.582C89.2707 225.309 88.3207 222.794 86.7069 221.036C85.0931 219.279 82.9268 218.285 80.208 218.055C77.532 217.809 74.3718 218.35 70.7273 219.676L53.4909 225.95L56.0679 255.405ZM51.4389 202.495L66.1027 197.158C69.2326 196.019 71.9524 194.49 74.2621 192.57C76.5717 190.651 78.3056 188.472 79.4637 186.034C80.6608 183.534 81.1341 180.853 80.8835 177.989C80.5057 173.671 78.7596 170.906 75.6452 169.695C72.5268 168.438 68.738 168.621 64.2788 170.244L49.1006 175.768L51.4389 202.495Z" fill="#FAD77C"/>
<path d="M22.9574 298.692L20.1383 299.719L20.3998 302.707L23.2189 301.681L22.9574 298.692ZM10.7408 159.056L10.4793 156.067L7.66025 157.094L7.92172 160.082L10.7408 159.056ZM93.5037 133.365L92.7084 136.521L92.7142 136.522L93.5037 133.365ZM110.065 139.86L107.911 142.42L107.916 142.425L107.922 142.43L110.065 139.86ZM114.969 171.634L112.362 171.122L112.357 171.135L112.353 171.148L114.969 171.634ZM107.024 185.5L108.85 187.366L108.858 187.356L108.866 187.347L107.024 185.5ZM94.1595 196.233L93.3458 193.506L91.1264 194.813L91.3404 197.259L94.1595 196.233ZM94.2788 197.597L91.4597 198.623L91.7115 201.5L94.4334 200.622L94.2788 197.597ZM110.114 196.547L108.937 199.649L108.946 199.652L108.955 199.654L110.114 196.547ZM122.184 204.043L119.892 206.45L119.899 206.458L122.184 204.043ZM123.927 242.173L121.442 241.358L121.438 241.366L121.434 241.375L123.927 242.173ZM109.206 262.024L107.779 259.748L107.779 259.748L109.206 262.024ZM56.0679 255.405L53.2488 256.431L53.5102 259.419L56.3293 258.393L56.0679 255.405ZM85.9856 240.857L87.8765 242.644L87.8862 242.632L87.8957 242.62L85.9856 240.857ZM80.208 218.055L79.327 221.205L79.3351 221.206L79.3432 221.207L80.208 218.055ZM53.4909 225.95L53.2294 222.961L50.4104 223.987L50.6718 226.976L53.4909 225.95ZM51.4389 202.495L48.6198 203.521L48.8813 206.51L51.7004 205.484L51.4389 202.495ZM74.262 192.57L75.5749 194.945L75.5749 194.945L74.262 192.57ZM79.4637 186.034L77.03 185.106L77.0241 185.118L79.4637 186.034ZM75.6452 169.695L74.1629 172.701L74.1743 172.706L74.1859 172.71L75.6452 169.695ZM49.1006 175.768L48.8391 172.78L46.02 173.806L46.2815 176.794L49.1006 175.768ZM25.7765 297.666L13.5599 158.03L7.92172 160.082L20.1383 299.719L25.7765 297.666ZM11.0023 162.045L68.1137 141.258L67.5908 135.281L10.4793 156.067L11.0023 162.045ZM68.1137 141.258C77.9136 137.691 86.0841 136.163 92.7084 136.521L94.2991 130.209C86.7876 129.802 77.8571 131.544 67.5908 135.281L68.1137 141.258ZM92.7142 136.522C99.4128 136.867 104.413 138.892 107.911 142.42L112.22 137.3C107.857 132.902 101.816 130.596 94.2933 130.208L92.7142 136.522ZM107.922 142.43C111.47 145.956 113.565 150.907 114.137 157.444L119.775 155.392C119.106 147.747 116.607 141.659 112.209 137.289L107.922 142.43ZM114.137 157.444C114.546 162.122 113.941 166.666 112.362 171.122L117.576 172.145C119.545 166.586 120.264 160.986 119.775 155.392L114.137 157.444ZM112.353 171.148C110.799 175.63 108.422 179.789 105.182 183.654L108.866 187.347C112.757 182.706 115.677 177.621 117.585 172.119L112.353 171.148ZM105.198 183.635C101.958 187.453 98.0256 190.751 93.3458 193.506L94.9731 198.96C100.307 195.819 104.951 191.962 108.85 187.366L105.198 183.635ZM91.3404 197.259L91.4597 198.623L97.0979 196.571L96.9786 195.207L91.3404 197.259ZM94.4334 200.622C99.6839 198.928 104.502 198.619 108.937 199.649L111.291 193.444C105.971 192.209 100.233 192.6 94.1242 194.571L94.4334 200.622ZM108.955 199.654C113.371 200.639 117.006 202.893 119.892 206.449L124.476 201.637C121.016 197.373 116.603 194.629 111.273 193.44L108.955 199.654ZM119.899 206.458C122.72 209.898 124.447 214.613 124.984 220.753L130.623 218.701C130.007 211.659 127.987 205.918 124.469 201.629L119.899 206.458ZM124.984 220.753C125.604 227.836 124.407 234.677 121.442 241.358L126.413 242.988C129.952 235.014 131.339 226.89 130.623 218.701L124.984 220.753ZM121.434 241.375C118.503 248.054 113.993 254.176 107.779 259.748L110.634 264.3C117.629 258.028 122.933 250.917 126.42 242.972L121.434 241.375ZM107.779 259.748C101.61 265.279 93.9475 269.77 84.6953 273.138L85.2182 279.115C95.0889 275.522 103.593 270.612 110.634 264.3L107.779 259.748ZM84.6953 273.138L22.6959 295.704L23.2189 301.681L85.2182 279.115L84.6953 273.138ZM56.3293 258.393L73.0511 252.307L72.5282 246.33L55.8064 252.416L56.3293 258.393ZM73.0511 252.307C79.3207 250.025 84.4289 246.908 87.8765 242.644L84.0946 239.07C81.9531 241.718 78.264 244.242 72.5282 246.33L73.0511 252.307ZM87.8957 242.62C91.4589 238.149 92.8516 232.991 92.3761 227.556L86.738 229.608C87.0817 233.537 86.0934 236.562 84.0754 239.094L87.8957 242.62ZM92.3761 227.556C92.0491 223.818 90.9411 220.74 88.9157 218.534L84.4981 223.539C85.7003 224.848 86.4924 226.801 86.738 229.608L92.3761 227.556ZM88.9157 218.534C86.9177 216.358 84.262 215.173 81.0728 214.903L79.3432 221.207C81.5917 221.397 83.2686 222.2 84.4981 223.539L88.9157 218.534ZM81.089 214.905C77.9524 214.617 74.3854 215.261 70.4658 216.688L70.9887 222.665C74.3581 221.439 77.1116 221.002 79.327 221.205L81.089 214.905ZM70.4658 216.688L53.2294 222.961L53.7524 228.939L70.9887 222.665L70.4658 216.688ZM50.6718 226.976L53.2488 256.431L58.8869 254.378L56.31 224.924L50.6718 226.976ZM51.7004 205.484L66.3641 200.147L65.8412 194.17L51.1774 199.507L51.7004 205.484ZM66.3641 200.147C69.7876 198.901 72.8786 197.186 75.5749 194.945L72.9492 190.196C71.0263 191.794 68.6776 193.137 65.8412 194.17L66.3641 200.147ZM75.5749 194.945C78.2848 192.693 80.4406 190.029 81.9034 186.949L77.0241 185.118C76.1705 186.915 74.8586 188.609 72.9492 190.196L75.5749 194.945ZM81.8974 186.962C83.4467 183.727 83.9994 180.355 83.7026 176.963L78.0645 179.015C78.2688 181.351 77.8749 183.342 77.0301 185.106L81.8974 186.962ZM83.7026 176.963C83.2537 171.832 81.0958 168.232 77.1045 166.679L74.1859 172.71C76.4235 173.581 77.7578 175.51 78.0645 179.015L83.7026 176.963ZM77.1275 166.688C73.3793 165.177 68.9471 165.461 64.0174 167.255L64.5403 173.232C68.5289 171.781 71.6743 171.698 74.1629 172.701L77.1275 166.688ZM64.0174 167.255L48.8391 172.78L49.362 178.757L64.5403 173.232L64.0174 167.255ZM46.2815 176.794L48.6198 203.521L54.258 201.469L51.9196 174.742L46.2815 176.794Z" fill="black" mask="url(#path-7-outside-4_69_290)"/>
<mask id="path-9-outside-5_69_290" maskUnits="userSpaceOnUse" x="158.442" y="73.6387" width="147.537" height="199.334" fill="black">
<rect fill="white" x="158.442" y="73.6387" width="147.537" height="199.334"/>
<path d="M296.449 150.351C297.81 165.897 296.106 180.048 291.337 192.805C286.565 205.517 279.575 216.387 270.366 225.414C261.153 234.395 250.587 241.055 238.667 245.393C226.662 249.763 215.574 250.961 205.402 248.988C195.27 246.954 186.887 241.657 180.254 233.096C173.66 224.474 169.687 212.436 168.335 196.981C166.975 181.436 168.659 167.315 173.388 154.619C178.156 141.861 185.125 131 194.295 122.034C203.504 113.007 214.111 106.309 226.117 101.939C238.036 97.6005 249.082 96.4179 259.253 98.391C269.42 100.319 277.823 105.586 284.46 114.192C291.093 122.753 295.089 134.806 296.449 150.351ZM259.661 163.741C258.93 155.377 257.263 148.714 254.661 143.752C252.098 138.728 248.65 135.48 244.319 134.008C240.026 132.475 234.921 132.785 229.004 134.939C223.087 137.093 218.223 140.411 214.412 144.893C210.64 149.315 207.956 154.794 206.361 161.331C204.804 167.808 204.391 175.228 205.123 183.591C205.854 191.955 207.502 198.649 210.065 203.672C212.667 208.635 216.114 211.883 220.407 213.416C224.739 214.888 229.863 214.547 235.78 212.393C241.697 210.24 246.542 206.952 250.313 202.531C254.124 198.048 256.808 192.569 258.365 186.093C259.961 179.555 260.393 172.105 259.661 163.741Z"/>
</mask>
<path d="M296.449 150.351C297.81 165.897 296.106 180.048 291.337 192.805C286.565 205.517 279.575 216.387 270.366 225.414C261.153 234.395 250.587 241.055 238.667 245.393C226.662 249.763 215.574 250.961 205.402 248.988C195.27 246.954 186.887 241.657 180.254 233.096C173.66 224.474 169.687 212.436 168.335 196.981C166.975 181.436 168.659 167.315 173.388 154.619C178.156 141.861 185.125 131 194.295 122.034C203.504 113.007 214.111 106.309 226.117 101.939C238.036 97.6005 249.082 96.4179 259.253 98.391C269.42 100.319 277.823 105.586 284.46 114.192C291.093 122.753 295.089 134.806 296.449 150.351ZM259.661 163.741C258.93 155.377 257.263 148.714 254.661 143.752C252.098 138.728 248.65 135.48 244.319 134.008C240.026 132.475 234.921 132.785 229.004 134.939C223.087 137.093 218.223 140.411 214.412 144.893C210.64 149.315 207.956 154.794 206.361 161.331C204.804 167.808 204.391 175.228 205.123 183.591C205.854 191.955 207.502 198.649 210.065 203.672C212.667 208.635 216.114 211.883 220.407 213.416C224.739 214.888 229.863 214.547 235.78 212.393C241.697 210.24 246.542 206.952 250.313 202.531C254.124 198.048 256.808 192.569 258.365 186.093C259.961 179.555 260.393 172.105 259.661 163.741Z" fill="#FAD77C"/>
<path d="M291.337 192.805L293.918 193.39L293.92 193.385L291.337 192.805ZM270.366 225.414L271.919 227.572L271.927 227.564L270.366 225.414ZM205.402 248.988L204.288 252.105L204.295 252.106L204.302 252.107L205.402 248.988ZM180.254 233.096L177.924 235.454L177.928 235.459L177.932 235.465L180.254 233.096ZM173.388 154.619L170.806 154.039L170.804 154.044L173.388 154.619ZM194.295 122.034L195.853 124.188L195.856 124.184L194.295 122.034ZM259.253 98.391L258.153 101.51L258.162 101.512L259.253 98.391ZM284.46 114.192L282.135 116.557L282.138 116.561L284.46 114.192ZM254.661 143.752L252.116 145.768L252.122 145.78L252.128 145.791L254.661 143.752ZM244.319 134.008L242.913 137.044L242.927 137.049L242.942 137.054L244.319 134.008ZM214.412 144.893L216.231 146.768L216.235 146.762L214.412 144.893ZM206.361 161.331L203.636 161.213L203.633 161.226L206.361 161.331ZM210.065 203.672L207.52 205.689L207.526 205.7L207.532 205.712L210.065 203.672ZM220.407 213.416L219.001 216.451L219.016 216.457L219.031 216.462L220.407 213.416ZM250.313 202.531L252.132 204.405L252.137 204.4L250.313 202.531ZM258.365 186.093L255.641 185.974L255.638 185.987L258.365 186.093ZM293.63 151.377C294.957 166.542 293.276 180.13 288.755 192.226L293.92 193.385C298.935 179.966 300.662 165.251 299.269 149.325L293.63 151.377ZM288.757 192.221C284.194 204.377 277.545 214.696 268.805 223.263L271.927 227.564C281.605 218.078 288.937 206.657 293.918 193.39L288.757 192.221ZM268.813 223.255C260.02 231.827 249.905 238.219 238.406 242.405L238.929 248.382C251.269 243.891 262.286 236.963 271.919 227.572L268.813 223.255ZM238.406 242.405C226.821 246.621 216.205 247.751 206.502 245.869L204.302 252.107C214.942 254.171 226.503 252.905 238.929 248.382L238.406 242.405ZM206.516 245.872C196.896 243.941 188.922 238.918 182.576 230.727L177.932 235.465C184.852 244.395 193.644 249.968 204.288 252.105L206.516 245.872ZM182.584 230.738C176.329 222.559 172.472 211.029 171.154 195.955L165.516 198.007C166.901 213.843 170.991 226.389 177.924 235.454L182.584 230.738ZM171.154 195.955C169.827 180.787 171.489 167.228 175.972 155.193L170.804 154.044C165.829 167.402 164.122 182.085 165.516 198.007L171.154 195.955ZM175.97 155.198C180.532 142.994 187.158 132.688 195.853 124.188L192.738 119.88C183.092 129.311 175.781 140.729 170.806 154.039L175.97 155.198ZM195.856 124.184C204.641 115.573 214.793 109.144 226.378 104.928L225.855 98.9504C213.429 103.473 202.367 110.441 192.734 119.883L195.856 124.184ZM226.378 104.928C237.874 100.743 248.447 99.6272 258.153 101.51L260.353 95.272C249.717 93.2086 238.199 94.4576 225.855 98.9504L226.378 104.928ZM258.162 101.512C267.803 103.34 275.788 108.327 282.135 116.557L286.784 111.827C279.857 102.845 271.037 97.2976 260.344 95.2702L258.162 101.512ZM282.138 116.561C288.424 124.674 292.304 136.212 293.63 151.377L299.269 149.325C297.875 133.399 293.761 120.832 286.781 111.823L282.138 116.561ZM262.481 162.715C261.727 154.106 259.998 147.061 257.193 141.712L252.128 145.791C254.528 150.368 256.132 156.649 256.842 164.767L262.481 162.715ZM257.205 141.735C254.435 136.305 250.619 132.636 245.695 130.962L242.942 137.054C246.682 138.325 249.76 141.151 252.116 145.768L257.205 141.735ZM245.724 130.973C240.831 129.225 235.12 129.629 228.742 131.95L229.265 137.928C234.722 135.942 239.22 135.725 242.913 137.044L245.724 130.973ZM228.742 131.95C222.364 134.272 216.921 137.928 212.589 143.024L216.235 146.762C219.525 142.893 223.81 139.913 229.265 137.928L228.742 131.95ZM212.594 143.019C208.309 148.042 205.357 154.165 203.636 161.213L209.085 161.45C210.556 155.423 212.972 150.588 216.231 146.768L212.594 143.019ZM203.633 161.226C201.957 168.199 201.551 176.014 202.304 184.618L207.942 182.565C207.231 174.442 207.65 167.417 209.088 161.437L203.633 161.226ZM202.304 184.618C203.056 193.222 204.764 200.287 207.52 205.689L212.609 201.656C210.239 197.01 208.652 190.688 207.942 182.565L202.304 184.618ZM207.532 205.712C210.339 211.065 214.143 214.716 219.001 216.451L221.813 210.38C218.086 209.049 214.995 206.205 212.597 201.633L207.532 205.712ZM219.031 216.462C223.954 218.135 229.672 217.701 236.042 215.382L235.519 209.405C230.055 211.394 225.524 211.641 221.783 210.37L219.031 216.462ZM236.042 215.382C242.411 213.064 247.834 209.443 252.132 204.405L248.495 200.656C245.249 204.462 240.984 207.416 235.519 209.405L236.042 215.382ZM252.137 204.4C256.452 199.323 259.409 193.202 261.093 186.198L255.638 185.987C254.208 191.936 251.796 196.773 248.49 200.662L252.137 204.4ZM261.089 186.211C262.807 179.175 263.234 171.325 262.481 162.715L256.842 164.767C257.553 172.884 257.115 179.936 255.641 185.974L261.089 186.211Z" fill="black" mask="url(#path-9-outside-5_69_290)"/>
<mask id="path-11-outside-6_69_290" maskUnits="userSpaceOnUse" x="87.542" y="132.509" width="123.135" height="159.59" fill="black">
<rect fill="white" x="87.542" y="132.509" width="123.135" height="159.59"/>
<path d="M126.275 163.426L146.407 189.643L147.231 189.343L161.88 150.467L193.78 138.856L167.178 206.172L204.788 250.116L172.065 262.026L151.258 235.38L150.435 235.679L135.431 275.36L102.914 287.195L130.339 219.58L94.1694 175.111L126.275 163.426Z"/>
</mask>
<path d="M126.275 163.426L146.407 189.643L147.231 189.343L161.88 150.467L193.78 138.856L167.178 206.172L204.788 250.116L172.065 262.026L151.258 235.38L150.435 235.679L135.431 275.36L102.914 287.195L130.339 219.58L94.1694 175.111L126.275 163.426Z" fill="#FAD77C"/>
<path d="M126.275 163.426L128.603 161.064L127.661 159.838L126.014 160.437L126.275 163.426ZM146.407 189.643L144.08 192.004L145.022 193.231L146.669 192.631L146.407 189.643ZM147.231 189.343L147.492 192.332L149.129 191.736L149.809 189.933L147.231 189.343ZM161.88 150.467L161.618 147.478L159.981 148.074L159.302 149.877L161.88 150.467ZM193.78 138.856L196.334 139.509L198.488 134.059L193.519 135.868L193.78 138.856ZM167.178 206.172L164.624 205.519L163.88 207.403L164.921 208.62L167.178 206.172ZM204.788 250.116L205.05 253.104L210.119 251.259L207.045 247.667L204.788 250.116ZM172.065 262.026L169.748 264.401L170.692 265.61L172.326 265.015L172.065 262.026ZM151.258 235.38L153.575 233.004L152.631 231.796L150.997 232.391L151.258 235.38ZM150.435 235.679L150.173 232.691L148.539 233.286L147.858 235.085L150.435 235.679ZM135.431 275.36L135.693 278.348L137.327 277.753L138.008 275.954L135.431 275.36ZM102.914 287.195L100.374 286.507L98.1392 292.017L103.175 290.184L102.914 287.195ZM130.339 219.58L132.879 220.268L133.633 218.407L132.629 217.172L130.339 219.58ZM94.1694 175.111L93.908 172.123L88.9556 173.925L91.8789 177.52L94.1694 175.111ZM123.948 165.787L144.08 192.004L148.735 187.281L128.603 161.064L123.948 165.787ZM146.669 192.631L147.492 192.332L146.969 186.355L146.146 186.654L146.669 192.631ZM149.809 189.933L164.458 151.057L159.302 149.877L144.652 188.754L149.809 189.933ZM162.141 153.455L194.041 141.845L193.519 135.868L161.618 147.478L162.141 153.455ZM191.226 138.204L164.624 205.519L169.732 206.824L196.334 139.509L191.226 138.204ZM164.921 208.62L202.531 252.564L207.045 247.667L169.435 203.723L164.921 208.62ZM204.527 247.127L171.803 259.038L172.326 265.015L205.05 253.104L204.527 247.127ZM174.382 259.651L153.575 233.004L148.941 237.755L169.748 264.401L174.382 259.651ZM150.997 232.391L150.173 232.691L150.696 238.668L151.52 238.368L150.997 232.391ZM147.858 235.085L132.855 274.766L138.008 275.954L153.011 236.273L147.858 235.085ZM135.17 272.371L102.652 284.207L103.175 290.184L135.693 278.348L135.17 272.371ZM105.454 287.883L132.879 220.268L127.799 218.892L100.374 286.507L105.454 287.883ZM132.629 217.172L96.4599 172.703L91.8789 177.52L128.048 221.988L132.629 217.172ZM94.4309 178.1L126.537 166.414L126.014 160.437L93.908 172.123L94.4309 178.1Z" fill="black" mask="url(#path-11-outside-6_69_290)"/>
</svg>
