<svg width="46" height="46" viewBox="0 0 46 46" fill="none" xmlns="http://www.w3.org/2000/svg">
<path d="M18.3333 23L23 27.6667M23 27.6667L27.6667 32.3333M23 27.6667L27.6667 23M23 27.6667L18.3333 32.3333M39.3333 9L37.4356 37.4656C37.1905 41.1427 34.1364 44 30.4511 44H15.5489C11.8636 44 8.80951 41.1427 8.56438 37.4656L6.66667 9M30 9H44M30 9L28.4289 4.28679C27.9737 2.92114 26.6957 2 25.2562 2H20.7438C19.3043 2 18.0263 2.92114 17.5711 4.28679L16 9M30 9H16M2 9H16" stroke="#AB2A32" stroke-width="3" stroke-linecap="round" stroke-linejoin="round"/>
</svg>
