<svg width="26" height="20" viewBox="0 0 26 20" fill="none" xmlns="http://www.w3.org/2000/svg">
<path d="M20.9882 2.72655C20.9815 2.71393 20.9704 2.70421 20.957 2.69921C19.4688 2.01633 17.8985 1.5292 16.2851 1.24999C16.2706 1.24734 16.2557 1.2493 16.2423 1.25561C16.229 1.26192 16.218 1.27225 16.2109 1.28515C15.9969 1.67354 15.8026 2.07249 15.6289 2.48046C13.8888 2.21635 12.1189 2.21635 10.3789 2.48046C10.2044 2.07148 10.0075 1.67244 9.78902 1.28515C9.78148 1.27263 9.77042 1.26262 9.75721 1.25637C9.74401 1.25012 9.72926 1.2479 9.7148 1.24999C8.09862 1.52794 6.52551 2.0151 5.03511 2.69921C5.02204 2.70475 5.01109 2.71433 5.00386 2.72655C2.0273 7.17577 1.21089 11.5117 1.60933 15.7969C1.61046 15.8077 1.61382 15.8181 1.6192 15.8275C1.62458 15.8369 1.63186 15.8451 1.64058 15.8516C3.37443 17.134 5.31344 18.1128 7.37496 18.7461C7.38977 18.7507 7.40565 18.7505 7.42036 18.7456C7.43508 18.7407 7.44789 18.7313 7.45699 18.7187C7.89931 18.1166 8.29126 17.479 8.62886 16.8125C8.63336 16.8033 8.63591 16.7933 8.63636 16.7831C8.63681 16.7729 8.63515 16.7627 8.63149 16.7532C8.62782 16.7437 8.62223 16.735 8.61505 16.7277C8.60788 16.7204 8.59928 16.7147 8.5898 16.7109C7.97047 16.4736 7.37094 16.1876 6.79683 15.8555C6.78669 15.8492 6.77818 15.8407 6.77204 15.8305C6.76589 15.8203 6.76228 15.8088 6.76152 15.7969C6.76075 15.7851 6.76285 15.7732 6.76764 15.7623C6.77242 15.7514 6.77976 15.7418 6.78902 15.7344C6.91011 15.6445 7.03121 15.5508 7.14449 15.457C7.15448 15.4483 7.16676 15.4425 7.1799 15.4404C7.19304 15.4383 7.20649 15.44 7.21871 15.4453C10.9765 17.1601 15.0468 17.1601 18.7617 15.4453C18.7735 15.4395 18.7868 15.4372 18.7999 15.4386C18.813 15.4399 18.8255 15.445 18.8359 15.4531C18.9492 15.5469 19.0703 15.6445 19.1914 15.7344C19.2006 15.7418 19.208 15.7514 19.2127 15.7623C19.2175 15.7732 19.2196 15.7851 19.2189 15.7969C19.2181 15.8088 19.2145 15.8203 19.2083 15.8305C19.2022 15.8407 19.1937 15.8492 19.1835 15.8555C18.6109 16.1893 18.0111 16.4741 17.3906 16.707C17.3811 16.7108 17.3725 16.7165 17.3653 16.7238C17.3582 16.7311 17.3526 16.7397 17.3489 16.7493C17.3452 16.7588 17.3436 16.769 17.344 16.7792C17.3445 16.7894 17.347 16.7994 17.3515 16.8086C17.695 17.4718 18.0867 18.1089 18.5234 18.7148C18.5325 18.7274 18.5453 18.7368 18.56 18.7417C18.5747 18.7466 18.5906 18.7468 18.6054 18.7422C20.6729 18.1117 22.6175 17.1328 24.3554 15.8476C24.3643 15.8414 24.3717 15.8332 24.3771 15.8238C24.3825 15.8143 24.3858 15.8038 24.3867 15.793C24.8632 10.8437 23.582 6.54296 20.9882 2.72655ZM9.19136 13.1875C8.05855 13.1875 7.12886 12.1484 7.12886 10.875C7.12886 9.60155 8.04292 8.55859 9.19136 8.55859C10.3515 8.55859 11.2734 9.60546 11.2539 10.8711C11.2539 12.1484 10.3398 13.1875 9.19136 13.1875ZM16.8242 13.1875C15.6914 13.1875 14.7617 12.1484 14.7617 10.875C14.7617 9.60155 15.6718 8.55859 16.8242 8.55859C17.9843 8.55859 18.9062 9.60546 18.8867 10.8711C18.8867 12.1484 17.9804 13.1875 16.8242 13.1875Z" fill="white"/>
</svg>
