<svg width="23" height="26" viewBox="0 0 23 26" fill="none" xmlns="http://www.w3.org/2000/svg">
<g clip-path="url(#clip0_34_19)">
<path d="M11.5049 7.38477C8.38172 7.38477 5.86252 9.88965 5.86252 12.9951C5.86252 16.1006 8.38172 18.6055 11.5049 18.6055C14.6281 18.6055 17.1473 16.1006 17.1473 12.9951C17.1473 9.88965 14.6281 7.38477 11.5049 7.38477ZM11.5049 16.6426C9.48663 16.6426 7.83663 15.0068 7.83663 12.9951C7.83663 10.9834 9.48172 9.34766 11.5049 9.34766C13.5281 9.34766 15.1732 10.9834 15.1732 12.9951C15.1732 15.0068 13.5232 16.6426 11.5049 16.6426ZM18.6942 7.15527C18.6942 7.88281 18.1049 8.46387 17.3781 8.46387C16.6465 8.46387 16.0621 7.87793 16.0621 7.15527C16.0621 6.43262 16.6514 5.84668 17.3781 5.84668C18.1049 5.84668 18.6942 6.43262 18.6942 7.15527ZM22.4313 8.4834C22.3478 6.73047 21.9451 5.17773 20.6536 3.89844C19.367 2.61914 17.8054 2.21875 16.0424 2.13086C14.2255 2.02832 8.77948 2.02832 6.96252 2.13086C5.20449 2.21387 3.64288 2.61426 2.35136 3.89355C1.05984 5.17285 0.662074 6.72559 0.573682 8.47852C0.470557 10.2852 0.470557 15.7002 0.573682 17.5068C0.657164 19.2598 1.05984 20.8125 2.35136 22.0918C3.64288 23.3711 5.19957 23.7715 6.96252 23.8594C8.77948 23.9619 14.2255 23.9619 16.0424 23.8594C17.8054 23.7764 19.367 23.376 20.6536 22.0918C21.9402 20.8125 22.3429 19.2598 22.4313 17.5068C22.5344 15.7002 22.5344 10.29 22.4313 8.4834ZM20.0839 19.4453C19.7009 20.4023 18.9594 21.1396 17.992 21.5254C16.5433 22.0967 13.1058 21.9648 11.5049 21.9648C9.90404 21.9648 6.46163 22.0918 5.01788 21.5254C4.05538 21.1445 3.31386 20.4072 2.92591 19.4453C2.35136 18.0049 2.48395 14.5869 2.48395 12.9951C2.48395 11.4033 2.35627 7.98047 2.92591 6.54492C3.30895 5.58789 4.05047 4.85059 5.01788 4.46484C6.46654 3.89355 9.90404 4.02539 11.5049 4.02539C13.1058 4.02539 16.5482 3.89844 17.992 4.46484C18.9545 4.8457 19.696 5.58301 20.0839 6.54492C20.6585 7.98535 20.5259 11.4033 20.5259 12.9951C20.5259 14.5869 20.6585 18.0098 20.0839 19.4453Z" fill="white"/>
</g>
<defs>
<clipPath id="clip0_34_19">
<rect width="22" height="25" fill="white" transform="translate(0.5 0.5)"/>
</clipPath>
</defs>
</svg>
