<svg width="1425" height="674" viewBox="0 0 1425 674" fill="none" xmlns="http://www.w3.org/2000/svg">
<mask id="path-1-outside-1_69_380" maskUnits="userSpaceOnUse" x="1298.57" y="96.8887" width="73.7874" height="126.722" fill="black">
<rect fill="white" x="1298.57" y="96.8887" width="73.7874" height="126.722"/>
<path d="M1367.74 100.554L1341.97 177.537L1316.68 182.797L1336.69 107.014L1367.74 100.554ZM1318.4 216.623C1314.11 217.515 1310.87 216.815 1308.68 214.524C1306.54 212.189 1306.12 208.902 1307.42 204.663C1308.62 200.548 1311.18 196.71 1315.09 193.15C1319.03 189.582 1323.15 187.352 1327.44 186.46C1331.5 185.614 1334.65 186.333 1336.88 188.616C1339.14 190.892 1339.67 194.088 1338.47 198.203C1337.59 201.032 1336.06 203.757 1333.89 206.379C1331.77 208.958 1329.33 211.176 1326.59 213.035C1323.86 214.858 1321.13 216.054 1318.4 216.623Z"/>
</mask>
<path d="M1367.74 100.554L1341.97 177.537L1316.68 182.797L1336.69 107.014L1367.74 100.554ZM1318.4 216.623C1314.11 217.515 1310.87 216.815 1308.68 214.524C1306.54 212.189 1306.12 208.902 1307.42 204.663C1308.62 200.548 1311.18 196.71 1315.09 193.15C1319.03 189.582 1323.15 187.352 1327.44 186.46C1331.5 185.614 1334.65 186.333 1336.88 188.616C1339.14 190.892 1339.67 194.088 1338.47 198.203C1337.59 201.032 1336.06 203.757 1333.89 206.379C1331.77 208.958 1329.33 211.176 1326.59 213.035C1323.86 214.858 1321.13 216.054 1318.4 216.623Z" fill="#FAD77C"/>
<path d="M1367.74 100.554L1370.65 100.05L1371.65 97.0464L1368.61 97.6805L1367.74 100.554ZM1341.97 177.537L1341.1 180.411L1343.93 179.822L1344.87 177.032L1341.97 177.537ZM1316.68 182.797L1313.71 183.514L1312.99 186.26L1315.82 185.671L1316.68 182.797ZM1336.69 107.014L1337.56 104.141L1334.51 104.775L1333.73 107.731L1336.69 107.014ZM1308.68 214.524L1305.99 216.988L1306 216.998L1306.01 217.008L1308.68 214.524ZM1307.42 204.663L1310.35 204.077L1310.36 204.052L1310.37 204.027L1307.42 204.663ZM1315.09 193.15L1313.65 191.52L1313.64 191.528L1313.63 191.535L1315.09 193.15ZM1336.88 188.616L1334.22 191.109L1334.22 191.114L1334.23 191.118L1336.88 188.616ZM1338.47 198.203L1341.4 197.629L1341.41 197.598L1341.42 197.567L1338.47 198.203ZM1333.89 206.379L1331.86 205.374L1331.85 205.386L1333.89 206.379ZM1326.59 213.035L1327.34 215.204L1327.36 215.192L1327.37 215.18L1326.59 213.035ZM1364.84 101.059L1339.06 178.042L1344.87 177.032L1370.65 100.05L1364.84 101.059ZM1342.83 174.663L1317.54 179.924L1315.82 185.671L1341.1 180.411L1342.83 174.663ZM1319.65 182.081L1339.66 106.298L1333.73 107.731L1313.71 183.514L1319.65 182.081ZM1335.83 109.888L1366.88 103.428L1368.61 97.6805L1337.56 104.141L1335.83 109.888ZM1319.26 213.749C1315.74 214.482 1313.14 213.922 1311.35 212.041L1306.01 217.008C1308.59 219.709 1312.48 220.548 1317.53 219.496L1319.26 213.749ZM1311.36 212.06C1309.62 210.159 1309.28 207.551 1310.35 204.077L1304.49 205.25C1302.95 210.253 1303.45 214.22 1305.99 216.988L1311.36 212.06ZM1310.37 204.027C1311.34 200.697 1313.35 197.67 1316.54 194.765L1313.63 191.535C1309.01 195.75 1305.91 200.399 1304.48 205.299L1310.37 204.027ZM1316.52 194.78C1319.76 191.85 1323.05 190.066 1326.58 189.334L1328.3 183.586C1323.24 184.638 1318.3 187.314 1313.65 191.52L1316.52 194.78ZM1326.58 189.334C1329.83 188.656 1332.36 189.201 1334.22 191.109L1339.54 186.124C1336.94 183.465 1333.17 182.572 1328.3 183.586L1326.58 189.334ZM1334.23 191.118C1336.09 192.991 1336.49 195.526 1335.53 198.839L1341.42 197.567C1342.85 192.65 1342.19 188.793 1339.53 186.114L1334.23 191.118ZM1335.55 198.777C1334.82 201.097 1333.6 203.275 1331.86 205.374L1335.93 207.384C1338.53 204.239 1340.36 200.966 1341.4 197.629L1335.55 198.777ZM1331.85 205.386C1330.08 207.529 1328.08 209.352 1325.81 210.89L1327.37 215.18C1330.59 213.001 1333.45 210.386 1335.94 207.372L1331.85 205.386ZM1325.85 210.867C1323.65 212.332 1321.48 213.287 1319.26 213.749L1317.53 219.496C1320.79 218.82 1324.07 217.384 1327.34 215.204L1325.85 210.867Z" fill="black" mask="url(#path-1-outside-1_69_380)"/>
<mask id="path-3-outside-2_69_380" maskUnits="userSpaceOnUse" x="1337.29" y="82.8694" width="78.1098" height="127.451" fill="black">
<rect fill="white" x="1337.29" y="82.8694" width="78.1098" height="127.451"/>
<path d="M1410.91 87.1561L1382.46 164.186L1356.91 169.502L1379.53 93.684L1410.91 87.1561ZM1357.5 203.319C1353.17 204.221 1349.94 203.528 1347.82 201.242C1345.75 198.912 1345.44 195.627 1346.89 191.385C1348.23 187.268 1350.92 183.425 1354.96 179.857C1359.04 176.281 1363.25 174.042 1367.58 173.14C1371.69 172.286 1374.83 172.997 1376.98 175.276C1379.18 177.546 1379.61 180.74 1378.27 184.857C1377.29 187.688 1375.66 190.416 1373.39 193.043C1371.18 195.626 1368.66 197.849 1365.85 199.714C1363.05 201.542 1360.26 202.744 1357.5 203.319Z"/>
</mask>
<path d="M1410.91 87.1561L1382.46 164.186L1356.91 169.502L1379.53 93.684L1410.91 87.1561ZM1357.5 203.319C1353.17 204.221 1349.94 203.528 1347.82 201.242C1345.75 198.912 1345.44 195.627 1346.89 191.385C1348.23 187.268 1350.92 183.425 1354.96 179.857C1359.04 176.281 1363.25 174.042 1367.58 173.14C1371.69 172.286 1374.83 172.997 1376.98 175.276C1379.18 177.546 1379.61 180.74 1378.27 184.857C1377.29 187.688 1375.66 190.416 1373.39 193.043C1371.18 195.626 1368.66 197.849 1365.85 199.714C1363.05 201.542 1360.26 202.744 1357.5 203.319Z" fill="#FAD77C"/>
<path d="M1410.91 87.1561L1413.81 86.6505L1414.91 83.6767L1411.86 84.3107L1410.91 87.1561ZM1382.46 164.186L1381.51 167.032L1384.34 166.443L1385.36 163.681L1382.46 164.186ZM1356.91 169.502L1353.94 170.218L1353.13 172.936L1355.96 172.347L1356.91 169.502ZM1379.53 93.684L1380.48 90.8386L1377.44 91.4727L1376.56 94.3997L1379.53 93.684ZM1347.82 201.242L1345.07 203.687L1345.08 203.696L1345.09 203.706L1347.82 201.242ZM1346.89 191.385L1349.82 190.799L1349.83 190.774L1349.84 190.749L1346.89 191.385ZM1354.96 179.857L1353.59 178.247L1353.59 178.255L1353.58 178.262L1354.96 179.857ZM1376.98 175.276L1374.26 177.748L1374.26 177.753L1374.27 177.757L1376.98 175.276ZM1378.27 184.857L1381.19 184.283L1381.2 184.252L1381.21 184.221L1378.27 184.857ZM1373.39 193.043L1371.41 192.053L1371.4 192.065L1373.39 193.043ZM1365.85 199.714L1366.51 201.858L1366.53 201.847L1366.55 201.835L1365.85 199.714ZM1408.01 87.6618L1379.56 164.692L1385.36 163.681L1413.81 86.6505L1408.01 87.6618ZM1383.41 161.341L1357.86 166.657L1355.96 172.347L1381.51 167.032L1383.41 161.341ZM1359.88 168.786L1382.5 92.9683L1376.56 94.3997L1353.94 170.218L1359.88 168.786ZM1378.58 96.5294L1409.96 90.0015L1411.86 84.3107L1380.48 90.8386L1378.58 96.5294ZM1358.45 200.474C1354.88 201.216 1352.3 200.661 1350.55 198.779L1345.09 203.706C1347.58 206.396 1351.45 207.226 1356.55 206.165L1358.45 200.474ZM1350.57 198.798C1348.88 196.896 1348.63 194.283 1349.82 190.799L1343.96 191.972C1342.25 196.97 1342.62 200.929 1345.07 203.687L1350.57 198.798ZM1349.84 190.749C1350.92 187.409 1353.05 184.37 1356.35 181.452L1353.58 178.262C1348.8 182.48 1345.54 187.126 1343.94 192.021L1349.84 190.749ZM1356.34 181.466C1359.69 178.523 1363.07 176.728 1366.63 175.986L1368.53 170.295C1363.43 171.356 1358.4 174.038 1353.59 178.247L1356.34 181.466ZM1366.63 175.986C1369.93 175.3 1372.45 175.841 1374.26 177.748L1379.71 172.803C1377.2 170.154 1373.45 169.272 1368.53 170.295L1366.63 175.986ZM1374.27 177.757C1376.08 179.63 1376.4 182.17 1375.32 185.493L1381.21 184.221C1382.81 179.31 1382.28 175.462 1379.7 172.794L1374.27 177.757ZM1375.34 185.432C1374.54 187.758 1373.23 189.945 1371.41 192.053L1375.38 194.033C1378.1 190.888 1380.04 187.617 1381.19 184.283L1375.34 185.432ZM1371.4 192.065C1369.55 194.216 1367.48 196.047 1365.14 197.593L1366.55 201.835C1369.84 199.652 1372.8 197.035 1375.39 194.021L1371.4 192.065ZM1365.18 197.57C1362.92 199.043 1360.7 200.006 1358.45 200.474L1356.55 206.165C1359.83 205.482 1363.17 204.042 1366.51 201.858L1365.18 197.57Z" fill="black" mask="url(#path-3-outside-2_69_380)"/>
<mask id="path-5-outside-3_69_380" maskUnits="userSpaceOnUse" x="345.552" y="264.928" width="129.12" height="144.271" fill="black">
<rect fill="white" x="345.552" y="264.928" width="129.12" height="144.271"/>
<path d="M382.295 398.594L350.132 405.286L392.721 285.791L433.461 277.314L463.348 381.731L431.184 388.423L411.771 312.295L410.913 312.473L382.295 398.594ZM378.797 355.673L439.265 343.093L437.975 365.834L377.507 378.414L378.797 355.673Z"/>
</mask>
<path d="M382.295 398.594L350.132 405.286L392.721 285.791L433.461 277.314L463.348 381.731L431.184 388.423L411.771 312.295L410.913 312.473L382.295 398.594ZM378.797 355.673L439.265 343.093L437.975 365.834L377.507 378.414L378.797 355.673Z" fill="#FAD77C"/>
<path d="M382.295 398.594L382.125 401.589L384.307 401.135L385.058 398.875L382.295 398.594ZM350.132 405.286L347.396 404.927L345.9 409.126L349.962 408.281L350.132 405.286ZM392.721 285.791L392.891 282.795L390.767 283.237L389.985 285.432L392.721 285.791ZM433.461 277.314L436.304 275.795L435.755 273.877L433.631 274.319L433.461 277.314ZM463.348 381.731L463.178 384.726L467.24 383.881L466.19 380.212L463.348 381.731ZM431.184 388.423L428.323 389.873L428.833 391.872L431.014 391.418L431.184 388.423ZM411.771 312.295L414.632 310.844L414.122 308.846L411.941 309.3L411.771 312.295ZM410.913 312.473L411.083 309.478L408.902 309.932L408.15 312.193L410.913 312.473ZM378.797 355.673L378.967 352.678L376.03 353.289L375.86 356.284L378.797 355.673ZM439.265 343.093L442.202 342.482L442.372 339.486L439.435 340.097L439.265 343.093ZM437.975 365.834L437.805 368.829L440.742 368.218L440.912 365.223L437.975 365.834ZM377.507 378.414L374.57 379.025L374.4 382.02L377.337 381.409L377.507 378.414ZM382.465 395.599L350.302 402.291L349.962 408.281L382.125 401.589L382.465 395.599ZM352.868 405.644L395.457 286.149L389.985 285.432L347.396 404.927L352.868 405.644ZM392.551 288.786L433.291 280.31L433.631 274.319L392.891 282.795L392.551 288.786ZM430.619 278.833L460.505 383.25L466.19 380.212L436.304 275.795L430.619 278.833ZM463.517 378.736L431.354 385.427L431.014 391.418L463.178 384.726L463.517 378.736ZM434.045 386.972L414.632 310.844L408.91 313.745L428.323 389.873L434.045 386.972ZM411.941 309.3L411.083 309.478L410.743 315.468L411.601 315.29L411.941 309.3ZM408.15 312.193L379.533 398.313L385.058 398.875L413.676 312.754L408.15 312.193ZM378.627 358.668L439.095 346.088L439.435 340.097L378.967 352.678L378.627 358.668ZM436.328 343.704L435.038 366.445L440.912 365.223L442.202 342.482L436.328 343.704ZM438.145 362.838L377.677 375.419L377.337 381.409L437.805 368.829L438.145 362.838ZM380.444 377.803L381.734 355.062L375.86 356.284L374.57 379.025L380.444 377.803Z" fill="black" mask="url(#path-5-outside-3_69_380)"/>
<mask id="path-7-outside-4_69_380" maskUnits="userSpaceOnUse" x="443.863" y="227.546" width="121.287" height="142.641" fill="black">
<rect fill="white" x="443.863" y="227.546" width="121.287" height="142.641"/>
<path d="M514.843 352.459L483.747 314.2L479.566 315.07L476.998 360.333L447.193 366.534L453.544 254.578L483.349 248.377L480.955 290.579L484.815 289.776L518.729 241.016L556.253 233.209L511.389 295.7L552.26 344.674L514.843 352.459Z"/>
</mask>
<path d="M514.843 352.459L483.747 314.2L479.566 315.07L476.998 360.333L447.193 366.534L453.544 254.578L483.349 248.377L480.955 290.579L484.815 289.776L518.729 241.016L556.253 233.209L511.389 295.7L552.26 344.674L514.843 352.459Z" fill="#FAD77C"/>
<path d="M514.843 352.459L512.401 354.756L513.215 355.758L514.674 355.454L514.843 352.459ZM483.747 314.2L486.19 311.903L485.375 310.901L483.917 311.205L483.747 314.2ZM479.566 315.07L479.735 312.075L476.798 312.686L476.628 315.681L479.566 315.07ZM476.998 360.333L476.828 363.328L479.765 362.717L479.935 359.722L476.998 360.333ZM447.193 366.534L444.256 367.145L444.086 370.14L447.023 369.529L447.193 366.534ZM453.544 254.578L453.714 251.583L450.777 252.194L450.607 255.189L453.544 254.578ZM483.349 248.377L486.286 247.766L486.456 244.771L483.519 245.382L483.349 248.377ZM480.955 290.579L478.018 291.19L477.848 294.186L480.785 293.575L480.955 290.579ZM484.815 289.776L484.645 292.772L486.1 292.469L487.048 291.105L484.815 289.776ZM518.729 241.016L518.899 238.021L517.444 238.324L516.495 239.688L518.729 241.016ZM556.253 233.209L558.449 234.591L562.499 228.95L556.423 230.214L556.253 233.209ZM511.389 295.7L509.193 294.318L507.659 296.455L508.963 298.017L511.389 295.7ZM552.26 344.674L552.09 347.67L558.08 346.423L554.687 342.357L552.26 344.674ZM517.286 350.162L486.19 311.903L481.304 316.497L512.401 354.756L517.286 350.162ZM483.917 311.205L479.735 312.075L479.396 318.065L483.577 317.195L483.917 311.205ZM476.628 315.681L474.061 360.944L479.935 359.722L482.503 314.459L476.628 315.681ZM477.168 357.338L447.363 363.539L447.023 369.529L476.828 363.328L477.168 357.338ZM450.13 365.923L456.481 253.967L450.607 255.189L444.256 367.145L450.13 365.923ZM453.374 257.574L483.179 251.372L483.519 245.382L453.714 251.583L453.374 257.574ZM480.412 248.988L478.018 291.19L483.892 289.968L486.286 247.766L480.412 248.988ZM480.785 293.575L484.645 292.772L484.984 286.781L481.125 287.584L480.785 293.575ZM487.048 291.105L520.963 242.345L516.495 239.688L482.581 288.448L487.048 291.105ZM518.559 244.012L556.083 236.204L556.423 230.214L518.899 238.021L518.559 244.012ZM554.057 231.828L509.193 294.318L513.585 297.082L558.449 234.591L554.057 231.828ZM508.963 298.017L549.834 346.991L554.687 342.357L513.815 293.383L508.963 298.017ZM552.43 341.679L515.013 349.464L514.674 355.454L552.09 347.67L552.43 341.679Z" fill="black" mask="url(#path-7-outside-4_69_380)"/>
<mask id="path-9-outside-5_69_380" maskUnits="userSpaceOnUse" x="873.549" y="138.892" width="103.665" height="138.975" fill="black">
<rect fill="white" x="873.549" y="138.892" width="103.665" height="138.975"/>
<path d="M876.879 274.214L883.23 162.258L930.832 152.354C939.195 150.614 946.152 150.301 951.704 151.415C957.292 152.521 961.414 154.869 964.071 158.458C966.764 162.039 967.949 166.672 967.626 172.358C967.393 176.476 966.286 180.415 964.307 184.176C962.364 187.93 959.736 191.286 956.426 194.243C953.117 197.165 949.311 199.505 945.009 201.265L944.947 202.358C949.654 201.559 953.873 201.887 957.604 203.344C961.338 204.764 964.237 207.204 966.301 210.664C968.367 214.088 969.25 218.442 968.95 223.726C968.602 229.849 966.721 235.624 963.305 241.053C959.925 246.474 955.281 251.149 949.372 255.08C943.463 259.01 936.524 261.804 928.555 263.462L876.879 274.214ZM908.061 243.741L921.998 240.841C927.001 239.8 930.808 238.072 933.417 235.657C936.028 233.205 937.44 230.102 937.653 226.348C937.802 223.724 937.338 221.624 936.262 220.047C935.186 218.47 933.585 217.435 931.459 216.941C929.368 216.439 926.804 216.504 923.767 217.136L909.4 220.125L908.061 243.741ZM910.467 201.32L922.689 198.777C925.298 198.235 927.627 197.336 929.676 196.081C931.725 194.827 933.347 193.301 934.544 191.503C935.779 189.662 936.461 187.593 936.591 185.297C936.788 181.835 935.723 179.445 933.396 178.129C931.071 176.776 928.051 176.486 924.334 177.259L911.683 179.891L910.467 201.32Z"/>
</mask>
<path d="M876.879 274.214L883.23 162.258L930.832 152.354C939.195 150.614 946.152 150.301 951.704 151.415C957.292 152.521 961.414 154.869 964.071 158.458C966.764 162.039 967.949 166.672 967.626 172.358C967.393 176.476 966.286 180.415 964.307 184.176C962.364 187.93 959.736 191.286 956.426 194.243C953.117 197.165 949.311 199.505 945.009 201.265L944.947 202.358C949.654 201.559 953.873 201.887 957.604 203.344C961.338 204.764 964.237 207.204 966.301 210.664C968.367 214.088 969.25 218.442 968.95 223.726C968.602 229.849 966.721 235.624 963.305 241.053C959.925 246.474 955.281 251.149 949.372 255.08C943.463 259.01 936.524 261.804 928.555 263.462L876.879 274.214ZM908.061 243.741L921.998 240.841C927.001 239.8 930.808 238.072 933.417 235.657C936.028 233.205 937.44 230.102 937.653 226.348C937.802 223.724 937.338 221.624 936.262 220.047C935.186 218.47 933.585 217.435 931.459 216.941C929.368 216.439 926.804 216.504 923.767 217.136L909.4 220.125L908.061 243.741ZM910.467 201.32L922.689 198.777C925.298 198.235 927.627 197.336 929.676 196.081C931.725 194.827 933.347 193.301 934.544 191.503C935.779 189.662 936.461 187.593 936.591 185.297C936.788 181.835 935.723 179.445 933.396 178.129C931.071 176.776 928.051 176.486 924.334 177.259L911.683 179.891L910.467 201.32Z" fill="#FAD77C"/>
<path d="M876.879 274.214L873.942 274.825L873.772 277.82L876.709 277.209L876.879 274.214ZM883.23 162.258L883.4 159.263L880.463 159.874L880.293 162.869L883.23 162.258ZM951.704 151.415L950.464 154.425L950.47 154.426L951.704 151.415ZM964.071 158.458L961.572 160.682L961.576 160.688L961.581 160.694L964.071 158.458ZM964.307 184.176L961.801 183.296L961.794 183.309L961.788 183.321L964.307 184.176ZM956.426 194.243L957.965 196.352L957.974 196.343L957.984 196.335L956.426 194.243ZM945.009 201.265L944.595 198.449L942.211 199.424L942.072 201.876L945.009 201.265ZM944.947 202.358L942.01 202.969L941.846 205.853L944.666 205.374L944.947 202.358ZM957.604 203.344L955.995 206.246L956.003 206.249L956.012 206.252L957.604 203.344ZM966.301 210.664L963.687 212.717L963.693 212.726L966.301 210.664ZM963.305 241.053L960.962 239.89L960.957 239.897L960.953 239.905L963.305 241.053ZM949.372 255.08L948.286 252.623L949.372 255.08ZM908.061 243.741L905.123 244.352L904.954 247.347L907.891 246.736L908.061 243.741ZM933.417 235.657L935.032 237.697L935.043 237.686L935.054 237.676L933.417 235.657ZM931.459 216.941L930.135 219.932L930.143 219.934L930.151 219.936L931.459 216.941ZM909.4 220.125L909.57 217.13L906.633 217.741L906.463 220.737L909.4 220.125ZM910.467 201.32L907.53 201.931L907.36 204.927L910.297 204.316L910.467 201.32ZM929.676 196.081L930.634 198.62L930.634 198.62L929.676 196.081ZM934.544 191.503L932.269 190.236L932.261 190.247L934.544 191.503ZM933.396 178.129L931.498 180.892L931.508 180.898L931.519 180.904L933.396 178.129ZM911.683 179.891L911.853 176.896L908.916 177.507L908.746 180.502L911.683 179.891ZM879.816 273.603L886.167 161.647L880.293 162.869L873.942 274.825L879.816 273.603ZM883.06 165.253L930.662 155.349L931.002 149.359L883.4 159.263L883.06 165.253ZM930.662 155.349C938.782 153.66 945.348 153.398 950.464 154.425L952.944 148.405C946.956 147.204 939.608 147.569 931.002 149.359L930.662 155.349ZM950.47 154.426C955.653 155.452 959.28 157.586 961.572 160.682L966.57 156.233C963.548 152.152 958.931 149.591 952.938 148.404L950.47 154.426ZM961.581 160.694C963.913 163.797 964.98 167.839 964.689 172.969L970.563 171.747C970.917 165.506 969.614 160.282 966.561 156.221L961.581 160.694ZM964.689 172.969C964.481 176.628 963.507 180.053 961.801 183.296L966.813 185.057C969.065 180.778 970.304 176.324 970.563 171.747L964.689 172.969ZM961.788 183.321C960.092 186.595 957.801 189.531 954.867 192.152L957.984 196.335C961.672 193.04 964.635 189.265 966.826 185.032L961.788 183.321ZM954.886 192.135C951.959 194.719 948.546 196.833 944.595 198.449L945.423 204.08C950.077 202.177 954.274 199.61 957.965 196.352L954.886 192.135ZM942.072 201.876L942.01 202.969L947.884 201.747L947.946 200.653L942.072 201.876ZM944.666 205.374C948.928 204.65 952.686 204.954 955.995 206.246L959.214 200.442C955.06 198.82 950.379 198.467 945.228 199.342L944.666 205.374ZM956.012 206.252C959.307 207.506 961.857 209.648 963.687 212.717L968.914 208.611C966.617 204.76 963.368 202.022 959.197 200.435L956.012 206.252ZM963.693 212.726C965.475 215.679 966.287 219.505 966.013 224.337L971.887 223.115C972.212 217.379 971.258 212.496 968.908 208.602L963.693 212.726ZM966.013 224.337C965.697 229.905 964.001 235.06 960.962 239.89L965.649 242.215C969.441 236.189 971.508 229.792 971.887 223.115L966.013 224.337ZM960.953 239.905C957.938 244.739 953.758 248.983 948.286 252.623L950.458 257.537C956.803 253.316 961.912 248.208 965.658 242.201L960.953 239.905ZM948.286 252.623C942.864 256.229 936.372 258.876 928.725 260.467L928.385 266.458C936.677 264.732 944.062 261.791 950.458 257.537L948.286 252.623ZM928.725 260.467L877.049 271.219L876.709 277.209L928.385 266.458L928.725 260.467ZM907.891 246.736L921.828 243.837L922.168 237.846L908.231 240.746L907.891 246.736ZM921.828 243.837C927.109 242.738 931.66 240.818 935.032 237.697L931.802 233.617C929.955 235.327 926.893 236.863 922.168 237.846L921.828 243.837ZM935.054 237.676C938.569 234.375 940.334 230.245 940.59 225.737L934.716 226.959C934.546 229.958 933.487 232.034 931.779 233.638L935.054 237.676ZM940.59 225.737C940.765 222.646 940.226 219.966 938.807 217.887L933.717 222.207C934.45 223.281 934.838 224.802 934.716 226.959L940.59 225.737ZM938.807 217.887C937.411 215.841 935.353 214.546 932.767 213.946L930.151 219.936C931.817 220.323 932.962 221.099 933.717 222.207L938.807 217.887ZM932.783 213.949C930.242 213.34 927.261 213.45 923.937 214.141L923.597 220.132C926.348 219.559 928.495 219.538 930.135 219.932L932.783 213.949ZM923.937 214.141L909.57 217.13L909.23 223.121L923.597 220.132L923.937 214.141ZM906.463 220.737L905.123 244.352L910.998 243.13L912.337 219.514L906.463 220.737ZM910.297 204.316L922.519 201.773L922.859 195.782L910.637 198.325L910.297 204.316ZM922.519 201.773C925.434 201.166 928.157 200.137 930.634 198.62L928.717 193.543C927.097 194.535 925.162 195.303 922.859 195.782L922.519 201.773ZM930.634 198.62C933.127 197.094 935.237 195.148 936.827 192.759L932.261 190.247C931.458 191.454 930.322 192.56 928.717 193.543L930.634 198.62ZM936.82 192.771C938.508 190.252 939.368 187.511 939.529 184.686L933.654 185.908C933.554 187.675 933.049 189.072 932.269 190.236L936.82 192.771ZM939.529 184.686C939.771 180.409 938.418 177.134 935.273 175.354L931.519 180.904C933.027 181.757 933.805 183.261 933.654 185.908L939.529 184.686ZM935.294 175.366C932.383 173.671 928.711 173.389 924.504 174.264L924.164 180.254C927.39 179.583 929.76 179.88 931.498 180.892L935.294 175.366ZM924.504 174.264L911.853 176.896L911.513 182.887L924.164 180.254L924.504 174.264ZM908.746 180.502L907.53 201.931L913.404 200.709L914.62 179.28L908.746 180.502Z" fill="black" mask="url(#path-9-outside-5_69_380)"/>
<mask id="path-11-outside-6_69_380" maskUnits="userSpaceOnUse" x="929.023" y="143.364" width="129.12" height="144.271" fill="black">
<rect fill="white" x="929.023" y="143.364" width="129.12" height="144.271"/>
<path d="M965.766 277.03L933.603 283.722L976.192 164.227L1016.93 155.751L1046.82 260.167L1014.65 266.859L995.242 190.731L994.384 190.91L965.766 277.03ZM962.268 234.109L1022.74 221.529L1021.45 244.27L960.978 256.85L962.268 234.109Z"/>
</mask>
<path d="M965.766 277.03L933.603 283.722L976.192 164.227L1016.93 155.751L1046.82 260.167L1014.65 266.859L995.242 190.731L994.384 190.91L965.766 277.03ZM962.268 234.109L1022.74 221.529L1021.45 244.27L960.978 256.85L962.268 234.109Z" fill="#FAD77C"/>
<path d="M965.766 277.03L965.596 280.026L967.778 279.572L968.529 277.311L965.766 277.03ZM933.603 283.722L930.867 283.364L929.37 287.563L933.433 286.717L933.603 283.722ZM976.192 164.227L976.362 161.232L974.238 161.674L973.456 163.868L976.192 164.227ZM1016.93 155.751L1019.77 154.232L1019.23 152.314L1017.1 152.755L1016.93 155.751ZM1046.82 260.167L1046.65 263.162L1050.71 262.317L1049.66 258.648L1046.82 260.167ZM1014.65 266.859L1011.79 268.309L1012.3 270.308L1014.48 269.854L1014.65 266.859ZM995.242 190.731L998.103 189.281L997.593 187.282L995.412 187.736L995.242 190.731ZM994.384 190.91L994.554 187.914L992.373 188.368L991.621 190.629L994.384 190.91ZM962.268 234.109L962.438 231.114L959.501 231.725L959.331 234.72L962.268 234.109ZM1022.74 221.529L1025.67 220.918L1025.84 217.923L1022.91 218.534L1022.74 221.529ZM1021.45 244.27L1021.28 247.265L1024.21 246.654L1024.38 243.659L1021.45 244.27ZM960.978 256.85L958.041 257.462L957.871 260.457L960.808 259.846L960.978 256.85ZM965.936 274.035L933.773 280.727L933.433 286.717L965.596 280.026L965.936 274.035ZM936.339 284.081L978.928 164.585L973.456 163.868L930.867 283.364L936.339 284.081ZM976.022 167.222L1016.76 158.746L1017.1 152.755L976.362 161.232L976.022 167.222ZM1014.09 157.27L1043.98 261.686L1049.66 258.648L1019.77 154.232L1014.09 157.27ZM1046.99 257.172L1014.82 263.864L1014.48 269.854L1046.65 263.162L1046.99 257.172ZM1017.52 265.408L998.103 189.281L992.381 192.182L1011.79 268.309L1017.52 265.408ZM995.412 187.736L994.554 187.914L994.214 193.905L995.072 193.726L995.412 187.736ZM991.621 190.629L963.004 276.75L968.529 277.311L997.147 191.19L991.621 190.629ZM962.098 237.105L1022.57 224.524L1022.91 218.534L962.438 231.114L962.098 237.105ZM1019.8 222.14L1018.51 244.881L1024.38 243.659L1025.67 220.918L1019.8 222.14ZM1021.62 241.275L961.148 253.855L960.808 259.846L1021.28 247.265L1021.62 241.275ZM963.915 256.239L965.205 233.498L959.331 234.72L958.041 257.462L963.915 256.239Z" fill="black" mask="url(#path-11-outside-6_69_380)"/>
<mask id="path-13-outside-7_69_380" maskUnits="userSpaceOnUse" x="1024.47" y="127.608" width="112.476" height="140.808" fill="black">
<rect fill="white" x="1024.47" y="127.608" width="112.476" height="140.808"/>
<path d="M1027.8 264.764L1034.15 152.808L1063.95 146.607L1061.47 190.34L1100.92 182.131L1103.41 138.398L1133.21 132.197L1126.86 244.153L1097.05 250.354L1099.53 206.621L1060.08 214.83L1057.6 258.563L1027.8 264.764Z"/>
</mask>
<path d="M1027.8 264.764L1034.15 152.808L1063.95 146.607L1061.47 190.34L1100.92 182.131L1103.41 138.398L1133.21 132.197L1126.86 244.153L1097.05 250.354L1099.53 206.621L1060.08 214.83L1057.6 258.563L1027.8 264.764Z" fill="#FAD77C"/>
<path d="M1027.8 264.764L1024.86 265.375L1024.69 268.37L1027.63 267.759L1027.8 264.764ZM1034.15 152.808L1034.32 149.813L1031.38 150.424L1031.21 153.419L1034.15 152.808ZM1063.95 146.607L1066.89 145.996L1067.06 143.001L1064.12 143.612L1063.95 146.607ZM1061.47 190.34L1058.53 190.951L1058.36 193.946L1061.3 193.335L1061.47 190.34ZM1100.92 182.131L1100.75 185.126L1103.69 184.515L1103.86 181.52L1100.92 182.131ZM1103.41 138.398L1103.58 135.403L1100.64 136.014L1100.47 139.009L1103.41 138.398ZM1133.21 132.197L1136.15 131.586L1136.32 128.591L1133.38 129.202L1133.21 132.197ZM1126.86 244.153L1126.69 247.148L1129.63 246.537L1129.8 243.542L1126.86 244.153ZM1097.05 250.354L1094.12 250.965L1093.95 253.96L1096.88 253.349L1097.05 250.354ZM1099.53 206.621L1102.47 206.01L1102.64 203.015L1099.7 203.626L1099.53 206.621ZM1060.08 214.83L1060.25 211.835L1057.31 212.446L1057.14 215.441L1060.08 214.83ZM1057.6 258.563L1057.43 261.558L1060.37 260.947L1060.54 257.952L1057.6 258.563ZM1030.73 264.153L1037.08 152.197L1031.21 153.419L1024.86 265.375L1030.73 264.153ZM1033.98 155.803L1063.78 149.602L1064.12 143.612L1034.32 149.813L1033.98 155.803ZM1061.01 147.218L1058.53 190.951L1064.41 189.728L1066.89 145.996L1061.01 147.218ZM1061.3 193.335L1100.75 185.126L1101.09 179.136L1061.64 187.344L1061.3 193.335ZM1103.86 181.52L1106.34 137.787L1100.47 139.009L1097.99 182.742L1103.86 181.52ZM1103.24 141.393L1133.04 135.192L1133.38 129.202L1103.58 135.403L1103.24 141.393ZM1130.27 132.808L1123.92 244.764L1129.8 243.542L1136.15 131.586L1130.27 132.808ZM1127.03 241.158L1097.22 247.359L1096.88 253.349L1126.69 247.148L1127.03 241.158ZM1099.99 249.743L1102.47 206.01L1096.6 207.232L1094.12 250.965L1099.99 249.743ZM1099.7 203.626L1060.25 211.835L1059.91 217.825L1099.36 209.616L1099.7 203.626ZM1057.14 215.441L1054.66 259.174L1060.54 257.952L1063.02 214.219L1057.14 215.441ZM1057.77 255.567L1027.96 261.768L1027.63 267.759L1057.43 261.558L1057.77 255.567Z" fill="black" mask="url(#path-13-outside-7_69_380)"/>
<mask id="path-15-outside-8_69_380" maskUnits="userSpaceOnUse" x="622.662" y="209.628" width="108.56" height="139.993" fill="black">
<rect fill="white" x="622.662" y="209.628" width="108.56" height="139.993"/>
<path d="M632.343 234.013L662.148 227.812L658.824 286.413L659.681 286.235L702.031 219.514L727.333 214.25L720.981 326.205L691.177 332.406L694.514 273.586L693.87 273.72L650.865 340.793L625.992 345.968L632.343 234.013Z"/>
</mask>
<path d="M632.343 234.013L662.148 227.812L658.824 286.413L659.681 286.235L702.031 219.514L727.333 214.25L720.981 326.205L691.177 332.406L694.514 273.586L693.87 273.72L650.865 340.793L625.992 345.968L632.343 234.013Z" fill="#FAD77C"/>
<path d="M632.343 234.013L632.513 231.018L629.576 231.629L629.406 234.624L632.343 234.013ZM662.148 227.812L665.085 227.201L665.255 224.205L662.318 224.816L662.148 227.812ZM658.824 286.413L655.886 287.025L655.716 290.02L658.654 289.409L658.824 286.413ZM659.681 286.235L659.511 289.23L661.067 288.907L662.016 287.412L659.681 286.235ZM702.031 219.514L702.201 216.519L700.645 216.842L699.697 218.337L702.031 219.514ZM727.333 214.25L730.27 213.639L730.44 210.643L727.503 211.254L727.333 214.25ZM720.981 326.205L720.812 329.201L723.749 328.59L723.919 325.594L720.981 326.205ZM691.177 332.406L688.239 333.018L688.07 336.013L691.007 335.402L691.177 332.406ZM694.514 273.586L697.451 272.975L697.621 269.98L694.683 270.591L694.514 273.586ZM693.87 273.72L694.04 270.725L692.495 271.046L691.547 272.526L693.87 273.72ZM650.865 340.793L650.695 343.789L652.24 343.467L653.189 341.987L650.865 340.793ZM625.992 345.968L623.055 346.58L622.885 349.575L625.822 348.964L625.992 345.968ZM632.173 237.008L661.978 230.807L662.318 224.816L632.513 231.018L632.173 237.008ZM659.211 228.423L655.886 287.025L661.761 285.802L665.085 227.201L659.211 228.423ZM658.654 289.409L659.511 289.23L659.851 283.24L658.993 283.418L658.654 289.409ZM662.016 287.412L704.365 220.691L699.697 218.337L657.347 285.058L662.016 287.412ZM701.861 222.509L727.163 217.245L727.503 211.254L702.201 216.519L701.861 222.509ZM724.396 214.861L718.044 326.816L723.919 325.594L730.27 213.639L724.396 214.861ZM721.151 323.21L691.346 329.411L691.007 335.402L720.812 329.201L721.151 323.21ZM694.114 331.795L697.451 272.975L691.576 274.197L688.239 333.018L694.114 331.795ZM694.683 270.591L694.04 270.725L693.7 276.715L694.344 276.581L694.683 270.591ZM691.547 272.526L648.541 339.6L653.189 341.987L696.194 274.914L691.547 272.526ZM651.035 337.798L626.162 342.973L625.822 348.964L650.695 343.789L651.035 337.798ZM628.929 345.357L635.28 233.402L629.406 234.624L623.055 346.58L628.929 345.357Z" fill="black" mask="url(#path-15-outside-8_69_380)"/>
<mask id="path-17-outside-9_69_380" maskUnits="userSpaceOnUse" x="1215.18" y="91.6248" width="92.8953" height="136.734" fill="black">
<rect fill="white" x="1215.18" y="91.6248" width="92.8953" height="136.734"/>
<path d="M1218.51 224.706L1224.86 112.75L1303.99 96.2886L1302.6 120.779L1253.28 131.04L1252.19 150.282L1297.43 140.869L1296.04 165.359L1250.8 174.772L1249.71 194.015L1298.81 183.799L1297.42 208.289L1218.51 224.706Z"/>
</mask>
<path d="M1218.51 224.706L1224.86 112.75L1303.99 96.2886L1302.6 120.779L1253.28 131.04L1252.19 150.282L1297.43 140.869L1296.04 165.359L1250.8 174.772L1249.71 194.015L1298.81 183.799L1297.42 208.289L1218.51 224.706Z" fill="#FAD77C"/>
<path d="M1218.51 224.706L1215.58 225.317L1215.41 228.312L1218.34 227.701L1218.51 224.706ZM1224.86 112.75L1225.03 109.755L1222.1 110.366L1221.93 113.361L1224.86 112.75ZM1303.99 96.2886L1306.92 95.6775L1307.09 92.6823L1304.16 93.2934L1303.99 96.2886ZM1302.6 120.779L1302.43 123.774L1305.36 123.163L1305.53 120.168L1302.6 120.779ZM1253.28 131.04L1253.45 128.044L1250.51 128.656L1250.34 131.651L1253.28 131.04ZM1252.19 150.282L1249.25 150.893L1249.08 153.888L1252.02 153.277L1252.19 150.282ZM1297.43 140.869L1300.37 140.258L1300.54 137.263L1297.6 137.874L1297.43 140.869ZM1296.04 165.359L1295.87 168.354L1298.81 167.743L1298.98 164.748L1296.04 165.359ZM1250.8 174.772L1250.97 171.777L1248.03 172.388L1247.86 175.383L1250.8 174.772ZM1249.71 194.015L1246.77 194.626L1246.6 197.621L1249.54 197.01L1249.71 194.015ZM1298.81 183.799L1301.75 183.188L1301.92 180.192L1298.98 180.803L1298.81 183.799ZM1297.42 208.289L1297.25 211.284L1300.19 210.673L1300.36 207.678L1297.42 208.289ZM1221.45 224.095L1227.8 112.139L1221.93 113.361L1215.58 225.317L1221.45 224.095ZM1224.69 115.746L1303.82 99.2838L1304.16 93.2934L1225.03 109.755L1224.69 115.746ZM1301.05 96.8997L1299.66 121.39L1305.53 120.168L1306.92 95.6775L1301.05 96.8997ZM1302.77 117.784L1253.45 128.044L1253.11 134.035L1302.43 123.774L1302.77 117.784ZM1250.34 131.651L1249.25 150.893L1255.13 149.671L1256.22 130.429L1250.34 131.651ZM1252.02 153.277L1297.26 143.864L1297.6 137.874L1252.36 147.287L1252.02 153.277ZM1294.49 141.48L1293.11 165.97L1298.98 164.748L1300.37 140.258L1294.49 141.48ZM1296.21 162.364L1250.97 171.777L1250.63 177.768L1295.87 168.354L1296.21 162.364ZM1247.86 175.383L1246.77 194.626L1252.64 193.404L1253.74 174.161L1247.86 175.383ZM1249.54 197.01L1298.64 186.794L1298.98 180.803L1249.88 191.02L1249.54 197.01ZM1295.87 184.41L1294.48 208.9L1300.36 207.678L1301.75 183.188L1295.87 184.41ZM1297.59 205.294L1218.68 221.711L1218.34 227.701L1297.25 211.284L1297.59 205.294Z" fill="black" mask="url(#path-17-outside-9_69_380)"/>
<mask id="path-19-outside-10_69_380" maskUnits="userSpaceOnUse" x="531.329" y="213.594" width="108.56" height="139.993" fill="black">
<rect fill="white" x="531.329" y="213.594" width="108.56" height="139.993"/>
<path d="M539.556 262.483L540.946 237.992L636.364 218.14L634.975 242.631L601.954 249.501L596.992 336.966L567.616 343.078L572.578 255.613L539.556 262.483Z"/>
</mask>
<path d="M539.556 262.483L540.946 237.992L636.364 218.14L634.975 242.631L601.954 249.501L596.992 336.966L567.616 343.078L572.578 255.613L539.556 262.483Z" fill="#FAD77C"/>
<path d="M539.556 262.483L536.619 263.094L536.449 266.089L539.386 265.478L539.556 262.483ZM540.946 237.992L541.116 234.997L538.179 235.608L538.009 238.604L540.946 237.992ZM636.364 218.14L639.301 217.529L639.471 214.534L636.534 215.145L636.364 218.14ZM634.975 242.631L634.805 245.626L637.742 245.015L637.912 242.019L634.975 242.631ZM601.954 249.501L602.124 246.506L599.186 247.117L599.017 250.112L601.954 249.501ZM596.992 336.966L596.822 339.961L599.759 339.35L599.929 336.355L596.992 336.966ZM567.616 343.078L564.678 343.689L564.509 346.684L567.446 346.073L567.616 343.078ZM572.578 255.613L575.515 255.002L575.685 252.006L572.748 252.617L572.578 255.613ZM542.493 261.872L543.883 237.381L538.009 238.604L536.619 263.094L542.493 261.872ZM540.776 240.988L636.194 221.135L636.534 215.145L541.116 234.997L540.776 240.988ZM633.427 218.751L632.038 243.242L637.912 242.019L639.301 217.529L633.427 218.751ZM635.145 239.635L602.124 246.506L601.784 252.496L634.805 245.626L635.145 239.635ZM599.017 250.112L594.055 337.577L599.929 336.355L604.891 248.89L599.017 250.112ZM597.162 333.971L567.786 340.083L567.446 346.073L596.822 339.961L597.162 333.971ZM570.553 342.467L575.515 255.002L569.641 256.224L564.678 343.689L570.553 342.467ZM572.748 252.617L539.726 259.488L539.386 265.478L572.408 258.608L572.748 252.617Z" fill="black" mask="url(#path-19-outside-10_69_380)"/>
<mask id="path-21-outside-11_69_380" maskUnits="userSpaceOnUse" x="1121.62" y="127.349" width="108.56" height="139.993" fill="black">
<rect fill="white" x="1121.62" y="127.349" width="108.56" height="139.993"/>
<path d="M1131.31 151.733L1161.11 145.532L1157.79 204.134L1158.64 203.956L1200.99 137.234L1226.29 131.97L1219.94 243.926L1190.14 250.127L1193.48 191.307L1192.83 191.44L1149.83 258.514L1124.95 263.689L1131.31 151.733Z"/>
</mask>
<path d="M1131.31 151.733L1161.11 145.532L1157.79 204.134L1158.64 203.956L1200.99 137.234L1226.29 131.97L1219.94 243.926L1190.14 250.127L1193.48 191.307L1192.83 191.44L1149.83 258.514L1124.95 263.689L1131.31 151.733Z" fill="#FAD77C"/>
<path d="M1131.31 151.733L1131.48 148.738L1128.54 149.349L1128.37 152.344L1131.31 151.733ZM1161.11 145.532L1164.05 144.921L1164.22 141.926L1161.28 142.537L1161.11 145.532ZM1157.79 204.134L1154.85 204.745L1154.68 207.74L1157.62 207.129L1157.79 204.134ZM1158.64 203.956L1158.47 206.951L1160.03 206.627L1160.98 205.133L1158.64 203.956ZM1200.99 137.234L1201.16 134.239L1199.61 134.563L1198.66 136.057L1200.99 137.234ZM1226.29 131.97L1229.23 131.359L1229.4 128.364L1226.46 128.975L1226.29 131.97ZM1219.94 243.926L1219.77 246.921L1222.71 246.31L1222.88 243.315L1219.94 243.926ZM1190.14 250.127L1187.2 250.738L1187.03 253.733L1189.97 253.122L1190.14 250.127ZM1193.48 191.307L1196.41 190.695L1196.58 187.7L1193.65 188.311L1193.48 191.307ZM1192.83 191.44L1193 188.445L1191.46 188.767L1190.51 190.247L1192.83 191.44ZM1149.83 258.514L1149.66 261.509L1151.2 261.188L1152.15 259.708L1149.83 258.514ZM1124.95 263.689L1122.02 264.3L1121.85 267.295L1124.78 266.684L1124.95 263.689ZM1131.14 154.728L1160.94 148.527L1161.28 142.537L1131.48 148.738L1131.14 154.728ZM1158.17 146.143L1154.85 204.745L1160.72 203.523L1164.05 144.921L1158.17 146.143ZM1157.62 207.129L1158.47 206.951L1158.81 200.96L1157.96 201.139L1157.62 207.129ZM1160.98 205.133L1203.33 138.412L1198.66 136.057L1156.31 202.778L1160.98 205.133ZM1200.82 140.23L1226.12 134.965L1226.46 128.975L1201.16 134.239L1200.82 140.23ZM1223.36 132.581L1217.01 244.537L1222.88 243.315L1229.23 131.359L1223.36 132.581ZM1220.11 240.931L1190.31 247.132L1189.97 253.122L1219.77 246.921L1220.11 240.931ZM1193.08 249.516L1196.41 190.695L1190.54 191.918L1187.2 250.738L1193.08 249.516ZM1193.65 188.311L1193 188.445L1192.66 194.436L1193.31 194.302L1193.65 188.311ZM1190.51 190.247L1147.5 257.32L1152.15 259.708L1195.16 192.634L1190.51 190.247ZM1150 255.519L1125.12 260.694L1124.78 266.684L1149.66 261.509L1150 255.519ZM1127.89 263.078L1134.24 151.122L1128.37 152.344L1122.02 264.3L1127.89 263.078Z" fill="black" mask="url(#path-21-outside-11_69_380)"/>
<mask id="path-23-outside-12_69_380" maskUnits="userSpaceOnUse" x="724.554" y="177.321" width="101.707" height="138.567" fill="black">
<rect fill="white" x="724.554" y="177.321" width="101.707" height="138.567"/>
<path d="M727.884 312.235L734.236 200.279L781.623 190.42C789.771 188.725 796.808 188.882 802.733 190.89C808.658 192.899 813.149 196.52 816.207 201.754C819.265 206.988 820.569 213.577 820.118 221.522C819.663 229.54 817.518 236.847 813.683 243.443C809.884 250.031 804.749 255.565 798.28 260.045C791.846 264.516 784.448 267.622 776.085 269.362L747.781 275.251L749.121 251.635L771.421 246.996C774.923 246.267 777.943 245.027 780.479 243.274C783.053 241.478 785.067 239.277 786.522 236.669C788.012 234.054 788.847 231.161 789.027 227.991C789.209 224.784 788.685 222.192 787.455 220.215C786.263 218.194 784.45 216.842 782.017 216.16C779.621 215.434 776.672 215.435 773.17 216.164L762.663 218.35L757.689 306.034L727.884 312.235Z"/>
</mask>
<path d="M727.884 312.235L734.236 200.279L781.623 190.42C789.771 188.725 796.808 188.882 802.733 190.89C808.658 192.899 813.149 196.52 816.207 201.754C819.265 206.988 820.569 213.577 820.118 221.522C819.663 229.54 817.518 236.847 813.683 243.443C809.884 250.031 804.749 255.565 798.28 260.045C791.846 264.516 784.448 267.622 776.085 269.362L747.781 275.251L749.121 251.635L771.421 246.996C774.923 246.267 777.943 245.027 780.479 243.274C783.053 241.478 785.067 239.277 786.522 236.669C788.012 234.054 788.847 231.161 789.027 227.991C789.209 224.784 788.685 222.192 787.455 220.215C786.263 218.194 784.45 216.842 782.017 216.16C779.621 215.434 776.672 215.435 773.17 216.164L762.663 218.35L757.689 306.034L727.884 312.235Z" fill="#FAD77C"/>
<path d="M727.884 312.235L724.947 312.846L724.777 315.841L727.714 315.23L727.884 312.235ZM734.236 200.279L734.405 197.284L731.468 197.895L731.298 200.89L734.236 200.279ZM802.733 190.89L801.214 193.825L802.733 190.89ZM816.207 201.754L818.83 199.718L818.83 199.718L816.207 201.754ZM813.683 243.443L811.263 242.407L811.255 242.42L813.683 243.443ZM798.28 260.045L797.131 257.63L797.124 257.635L798.28 260.045ZM747.781 275.251L744.844 275.862L744.674 278.857L747.611 278.246L747.781 275.251ZM749.121 251.635L749.291 248.64L746.354 249.251L746.184 252.246L749.121 251.635ZM780.479 243.274L781.625 245.691L781.632 245.686L781.64 245.68L780.479 243.274ZM786.522 236.669L784.083 235.665L784.073 235.682L784.064 235.699L786.522 236.669ZM787.455 220.215L784.836 222.258L784.849 222.28L784.862 222.301L787.455 220.215ZM782.017 216.16L780.566 219.117L780.588 219.124L780.611 219.13L782.017 216.16ZM762.663 218.35L762.833 215.355L759.896 215.966L759.726 218.961L762.663 218.35ZM757.689 306.034L757.519 309.029L760.456 308.418L760.626 305.423L757.689 306.034ZM730.821 311.624L737.173 199.668L731.298 200.89L724.947 312.846L730.821 311.624ZM734.066 203.275L781.453 193.415L781.793 187.425L734.405 197.284L734.066 203.275ZM781.453 193.415C789.21 191.801 795.766 191.978 801.214 193.825L804.251 187.955C797.849 185.785 790.332 185.648 781.793 187.425L781.453 193.415ZM801.214 193.825C806.679 195.678 810.782 198.994 813.584 203.79L818.83 199.718C815.516 194.046 810.636 190.12 804.251 187.955L801.214 193.825ZM813.584 203.79C816.372 208.561 817.607 214.635 817.181 222.133L823.055 220.911C823.531 212.52 822.159 205.414 818.83 199.718L813.584 203.79ZM817.181 222.133C816.752 229.695 814.743 236.422 811.263 242.407L816.104 244.478C820.294 237.272 822.575 229.385 823.055 220.911L817.181 222.133ZM811.255 242.42C807.788 248.433 803.107 253.493 797.131 257.63L799.429 262.459C806.392 257.638 811.98 251.63 816.111 244.465L811.255 242.42ZM797.124 257.635C791.183 261.764 784.253 264.703 776.255 266.367L775.915 272.357C784.643 270.542 792.509 267.269 799.435 262.455L797.124 257.635ZM776.255 266.367L747.951 272.256L747.611 278.246L775.915 272.357L776.255 266.367ZM750.718 274.64L752.058 251.024L746.184 252.246L744.844 275.862L750.718 274.64ZM748.951 254.63L771.251 249.991L771.591 244L749.291 248.64L748.951 254.63ZM771.251 249.991C775.084 249.193 778.575 247.798 781.625 245.691L779.333 240.858C777.31 242.255 774.763 243.341 771.591 244L771.251 249.991ZM781.64 245.68C784.711 243.538 787.189 240.848 788.979 237.639L784.064 235.699C782.945 237.705 781.395 239.419 779.317 240.869L781.64 245.68ZM788.96 237.673C790.793 234.457 791.759 230.997 791.964 227.38L786.09 228.602C785.935 231.326 785.231 233.651 784.083 235.665L788.96 237.673ZM791.964 227.38C792.171 223.737 791.583 220.597 790.048 218.129L784.862 222.301C785.786 223.787 786.247 225.831 786.09 228.602L791.964 227.38ZM790.074 218.171C788.595 215.665 786.344 214.009 783.423 213.19L780.611 219.13C782.557 219.675 783.931 220.723 784.836 222.258L790.074 218.171ZM783.468 213.203C780.587 212.33 777.173 212.371 773.34 213.169L773 219.159C776.172 218.499 778.655 218.538 780.566 219.117L783.468 213.203ZM773.34 213.169L762.833 215.355L762.494 221.345L773 219.159L773.34 213.169ZM759.726 218.961L754.752 306.645L760.626 305.423L765.601 217.739L759.726 218.961ZM757.859 303.039L728.054 309.24L727.714 315.23L757.519 309.029L757.859 303.039Z" fill="black" mask="url(#path-23-outside-12_69_380)"/>
<mask id="path-25-outside-13_69_380" maskUnits="userSpaceOnUse" x="796.855" y="175.21" width="120.478" height="145.433" fill="black">
<rect fill="white" x="796.855" y="175.21" width="120.478" height="145.433"/>
<path d="M910.806 236.684C910.099 249.147 907.126 260.156 901.887 269.709C896.651 279.226 889.869 287.029 881.542 293.12C873.217 299.173 864.087 303.234 854.152 305.301C844.146 307.382 835.23 307.059 827.403 304.329C819.615 301.556 813.586 296.4 809.316 288.861C805.085 281.278 803.321 271.291 804.024 258.9C804.731 246.437 807.685 235.45 812.886 225.941C818.125 216.387 824.889 208.588 833.178 202.541C841.505 196.451 850.671 192.365 860.678 190.283C870.613 188.216 879.493 188.548 887.32 191.277C895.148 193.97 901.196 199.104 905.463 206.679C909.732 214.218 911.514 224.22 910.806 236.684ZM880.144 243.063C880.524 236.357 879.969 230.891 878.479 226.663C877.026 222.392 874.669 219.425 871.408 217.762C868.186 216.056 864.108 215.716 859.177 216.742C854.245 217.768 850.013 219.837 846.482 222.948C842.988 226.016 840.234 230.046 838.221 235.039C836.245 239.988 835.067 245.815 834.686 252.521C834.306 259.227 834.842 264.715 836.295 268.987C837.785 273.214 840.142 276.181 843.365 277.888C846.626 279.55 850.722 279.868 855.654 278.842C860.585 277.816 864.798 275.769 868.292 272.701C871.823 269.59 874.577 265.56 876.553 260.611C878.566 255.618 879.764 249.769 880.144 243.063Z"/>
</mask>
<path d="M910.806 236.684C910.099 249.147 907.126 260.156 901.887 269.709C896.651 279.226 889.869 287.029 881.542 293.12C873.217 299.173 864.087 303.234 854.152 305.301C844.146 307.382 835.23 307.059 827.403 304.329C819.615 301.556 813.586 296.4 809.316 288.861C805.085 281.278 803.321 271.291 804.024 258.9C804.731 246.437 807.685 235.45 812.886 225.941C818.125 216.387 824.889 208.588 833.178 202.541C841.505 196.451 850.671 192.365 860.678 190.283C870.613 188.216 879.493 188.548 887.32 191.277C895.148 193.97 901.196 199.104 905.463 206.679C909.732 214.218 911.514 224.22 910.806 236.684ZM880.144 243.063C880.524 236.357 879.969 230.891 878.479 226.663C877.026 222.392 874.669 219.425 871.408 217.762C868.186 216.056 864.108 215.716 859.177 216.742C854.245 217.768 850.013 219.837 846.482 222.948C842.988 226.016 840.234 230.046 838.221 235.039C836.245 239.988 835.067 245.815 834.686 252.521C834.306 259.227 834.842 264.715 836.295 268.987C837.785 273.214 840.142 276.181 843.365 277.888C846.626 279.55 850.722 279.868 855.654 278.842C860.585 277.816 864.798 275.769 868.292 272.701C871.823 269.59 874.577 265.56 876.553 260.611C878.566 255.618 879.764 249.769 880.144 243.063Z" fill="#FAD77C"/>
<path d="M901.887 269.709L904.357 270.658L904.36 270.653L901.887 269.709ZM881.542 293.12L882.769 295.478L882.779 295.472L881.542 293.12ZM827.403 304.329L825.854 307.254L825.86 307.256L825.867 307.258L827.403 304.329ZM809.316 288.861L806.672 290.861L806.676 290.867L806.679 290.872L809.316 288.861ZM812.886 225.941L810.413 224.997L810.411 225.001L812.886 225.941ZM833.178 202.541L834.41 204.897L834.414 204.894L833.178 202.541ZM887.32 191.277L885.784 194.206L885.792 194.209L887.32 191.277ZM905.463 206.679L902.823 208.687L902.826 208.691L905.463 206.679ZM878.479 226.663L875.671 228.294L875.675 228.306L875.68 228.318L878.479 226.663ZM871.408 217.762L869.582 220.565L869.596 220.572L869.61 220.579L871.408 217.762ZM846.482 222.948L848.012 225.064L848.018 225.06L846.482 222.948ZM838.221 235.039L835.542 234.531L835.536 234.544L838.221 235.039ZM836.295 268.987L833.487 270.617L833.491 270.629L833.496 270.642L836.295 268.987ZM843.365 277.888L841.538 280.69L841.552 280.697L841.566 280.705L843.365 277.888ZM868.292 272.701L869.822 274.817L869.828 274.813L868.292 272.701ZM876.553 260.611L873.874 260.103L873.869 260.116L876.553 260.611ZM907.869 237.295C907.184 249.377 904.315 259.831 899.415 268.766L904.36 270.653C909.938 260.481 913.015 248.918 913.744 236.073L907.869 237.295ZM899.418 268.76C894.467 277.758 888.103 285.065 880.305 290.767L882.779 295.472C891.635 288.994 898.834 280.694 904.357 270.658L899.418 268.76ZM880.315 290.761C872.464 296.469 863.82 300.329 854.322 302.305L853.983 308.296C864.355 306.138 873.97 301.877 882.769 295.478L880.315 290.761ZM854.322 302.305C844.754 304.296 836.315 303.973 828.939 301.4L825.867 307.258C834.144 310.145 843.538 310.469 853.983 308.296L854.322 302.305ZM828.953 301.405C821.656 298.807 815.993 293.982 811.954 286.85L806.679 290.872C811.179 298.818 817.573 304.305 825.854 307.254L828.953 301.405ZM811.96 286.861C808.001 279.766 806.279 270.298 806.961 258.289L801.086 259.511C800.362 272.284 802.169 282.79 806.672 290.861L811.96 286.861ZM806.961 258.289C807.646 246.203 810.498 235.77 815.361 226.88L810.411 225.001C804.871 235.13 801.815 246.67 801.086 259.511L806.961 258.289ZM815.358 226.884C820.313 217.849 826.659 210.551 834.41 204.897L831.945 200.186C823.119 206.625 815.936 214.926 810.413 224.997L815.358 226.884ZM834.414 204.894C842.262 199.154 850.939 195.269 860.508 193.279L860.847 187.288C850.403 189.461 840.747 193.749 831.941 200.189L834.414 204.894ZM860.508 193.279C870.001 191.304 878.405 191.633 885.784 194.206L888.856 188.348C880.582 185.463 871.224 185.129 860.847 187.288L860.508 193.279ZM885.792 194.209C893.115 196.728 898.789 201.525 902.823 208.687L908.103 204.672C903.603 196.683 897.182 191.212 888.847 188.345L885.792 194.209ZM902.826 208.691C906.816 215.737 908.555 225.212 907.869 237.295L913.744 236.073C914.472 223.228 912.649 212.7 908.101 204.668L902.826 208.691ZM883.081 242.452C883.475 235.5 882.913 229.647 881.278 225.008L875.68 228.318C877.025 232.135 877.573 237.214 877.207 243.674L883.081 242.452ZM881.286 225.033C879.686 220.329 877.025 216.892 873.207 214.945L869.61 220.579C872.313 221.958 874.365 224.454 875.671 228.294L881.286 225.033ZM873.235 214.96C869.449 212.955 864.758 212.621 859.346 213.747L859.007 219.737C863.459 218.811 866.922 219.157 869.582 220.565L873.235 214.96ZM859.346 213.747C853.934 214.873 849.081 217.193 844.945 220.837L848.018 225.06C850.945 222.48 854.556 220.663 859.007 219.737L859.346 213.747ZM844.951 220.832C840.863 224.422 837.752 229.051 835.542 234.531L840.9 235.547C842.717 231.041 845.113 227.61 848.012 225.064L844.951 220.832ZM835.536 234.544C833.371 239.967 832.143 246.186 831.749 253.132L837.623 251.91C837.99 245.444 839.118 240.009 840.905 235.534L835.536 234.544ZM831.749 253.132C831.355 260.079 831.898 265.944 833.487 270.617L839.102 267.356C837.786 263.486 837.257 258.374 837.623 251.91L831.749 253.132ZM833.496 270.642C835.133 275.285 837.784 278.703 841.538 280.69L845.192 275.085C842.5 273.66 840.438 271.144 839.094 267.331L833.496 270.642ZM841.566 280.705C845.383 282.651 850.08 282.962 855.484 281.837L855.823 275.847C851.364 276.775 847.868 276.45 845.164 275.071L841.566 280.705ZM855.484 281.837C860.886 280.713 865.72 278.42 869.822 274.817L866.761 270.585C863.876 273.119 860.284 274.919 855.823 275.847L855.484 281.837ZM869.828 274.813C873.944 271.186 877.06 266.559 879.237 261.106L873.869 260.116C872.094 264.56 869.702 267.994 866.755 270.59L869.828 274.813ZM879.232 261.119C881.438 255.65 882.687 249.405 883.081 242.452L877.207 243.674C876.84 250.133 875.695 255.586 873.874 260.103L879.232 261.119Z" fill="black" mask="url(#path-25-outside-13_69_380)"/>
<mask id="path-27-outside-14_69_380" maskUnits="userSpaceOnUse" x="23.7378" y="286.58" width="124.831" height="171.003" fill="black">
<rect fill="white" x="23.7378" y="286.58" width="124.831" height="171.003"/>
<path d="M26.8785 453.97L34.8177 314.025L94.0522 301.701C104.237 299.582 113.033 299.778 120.439 302.289C127.846 304.799 133.46 309.326 137.282 315.869C141.105 322.411 142.735 330.648 142.171 340.579C141.603 350.601 138.921 359.734 134.127 367.98C129.378 376.215 122.96 383.133 114.873 388.732C106.831 394.322 97.583 398.204 87.1298 400.379L51.7499 407.74L53.4246 378.22L81.2997 372.421C85.6775 371.51 89.4515 369.959 92.6217 367.769C95.8392 365.524 98.357 362.772 100.175 359.513C102.038 356.244 103.082 352.628 103.307 348.665C103.534 344.656 102.879 341.416 101.342 338.945C99.8521 336.418 97.5862 334.729 94.5445 333.876C91.55 332.969 87.8639 332.97 83.4861 333.881L70.3526 336.614L64.1346 446.219L26.8785 453.97Z"/>
</mask>
<path d="M26.8785 453.97L34.8177 314.025L94.0522 301.701C104.237 299.582 113.033 299.778 120.439 302.289C127.846 304.799 133.46 309.326 137.282 315.869C141.105 322.411 142.735 330.648 142.171 340.579C141.603 350.601 138.921 359.734 134.127 367.98C129.378 376.215 122.96 383.133 114.873 388.732C106.831 394.322 97.583 398.204 87.1298 400.379L51.7499 407.74L53.4246 378.22L81.2997 372.421C85.6775 371.51 89.4515 369.959 92.6217 367.769C95.8392 365.524 98.357 362.772 100.175 359.513C102.038 356.244 103.082 352.628 103.307 348.665C103.534 344.656 102.879 341.416 101.342 338.945C99.8521 336.418 97.5862 334.729 94.5445 333.876C91.55 332.969 87.8639 332.97 83.4861 333.881L70.3526 336.614L64.1346 446.219L26.8785 453.97Z" fill="#FAD77C"/>
<path d="M26.8785 453.97L23.9414 454.581L23.7715 457.576L26.7086 456.965L26.8785 453.97ZM34.8177 314.025L34.9877 311.03L32.0505 311.641L31.8806 314.637L34.8177 314.025ZM120.439 302.289L118.921 305.224L118.921 305.224L120.439 302.289ZM137.282 315.869L139.906 313.832L137.282 315.869ZM134.127 367.98L131.707 366.944L131.699 366.957L134.127 367.98ZM114.873 388.732L113.724 386.318L113.718 386.322L114.873 388.732ZM51.7499 407.74L48.8128 408.351L48.6429 411.346L51.58 410.735L51.7499 407.74ZM53.4246 378.22L53.5945 375.225L50.6574 375.836L50.4875 378.831L53.4246 378.22ZM92.6217 367.769L93.7675 370.186L93.7754 370.18L93.7832 370.175L92.6217 367.769ZM100.175 359.513L97.7365 358.509L97.727 358.526L97.7176 358.543L100.175 359.513ZM101.342 338.945L98.7234 340.988L98.7361 341.01L98.7492 341.031L101.342 338.945ZM94.5445 333.876L93.0939 336.833L93.116 336.84L93.1384 336.846L94.5445 333.876ZM70.3526 336.614L70.5225 333.619L67.5854 334.23L67.4155 337.225L70.3526 336.614ZM64.1346 446.219L63.9647 449.214L66.9018 448.603L67.0717 445.608L64.1346 446.219ZM29.8156 453.359L37.7548 313.414L31.8806 314.637L23.9414 454.581L29.8156 453.359ZM34.6478 317.021L93.8823 304.697L94.2222 298.706L34.9877 311.03L34.6478 317.021ZM93.8823 304.697C103.676 302.659 111.991 302.875 118.921 305.224L121.958 299.354C114.075 296.681 104.798 296.506 94.2222 298.706L93.8823 304.697ZM118.921 305.224C125.867 307.579 131.093 311.8 134.659 317.905L139.906 313.832C135.827 306.852 129.824 302.02 121.958 299.354L118.921 305.224ZM134.659 317.905C138.212 323.985 139.772 331.705 139.234 341.19L145.108 339.968C145.697 329.59 143.998 320.837 139.906 313.832L134.659 317.905ZM139.234 341.19C138.691 350.756 136.146 359.309 131.707 366.944L136.548 369.015C141.697 360.159 144.514 350.446 145.108 339.968L139.234 341.19ZM131.699 366.957C127.282 374.617 121.318 381.06 113.724 386.318L116.022 391.146C124.603 385.206 131.474 377.814 136.556 369.002L131.699 366.957ZM113.718 386.322C106.168 391.569 97.3878 395.285 87.2997 397.384L86.9599 403.374C97.7781 401.123 107.493 397.074 116.028 391.142L113.718 386.322ZM87.2997 397.384L51.9198 404.745L51.58 410.735L86.9599 403.374L87.2997 397.384ZM54.687 407.129L56.3617 377.609L50.4875 378.831L48.8128 408.351L54.687 407.129ZM53.2547 381.215L81.1298 375.416L81.4696 369.426L53.5945 375.225L53.2547 381.215ZM81.1298 375.416C85.8381 374.436 90.0841 372.731 93.7675 370.186L91.4759 365.353C88.8189 367.188 85.5169 368.583 81.4696 369.426L81.1298 375.416ZM93.7832 370.175C97.4971 367.584 100.479 364.343 102.633 360.483L97.7176 358.543C96.2348 361.201 94.1813 363.465 91.4602 365.364L93.7832 370.175ZM102.614 360.516C104.819 356.647 105.994 352.463 106.244 348.054L100.37 349.276C100.17 352.793 99.2571 355.841 97.7365 358.509L102.614 360.516ZM106.244 348.054C106.496 343.609 105.778 339.821 103.935 336.858L98.7492 341.031C99.9809 343.011 100.573 345.703 100.37 349.276L106.244 348.054ZM103.961 336.901C102.185 333.889 99.4799 331.896 95.9506 330.907L93.1384 336.846C95.6925 337.562 97.5197 338.947 98.7234 340.988L103.961 336.901ZM95.9951 330.92C92.5159 329.865 88.3644 329.906 83.656 330.886L83.3161 336.876C87.3634 336.034 90.5841 336.073 93.0939 336.833L95.9951 330.92ZM83.656 330.886L70.5225 333.619L70.1827 339.609L83.3161 336.876L83.656 330.886ZM67.4155 337.225L61.1975 446.83L67.0717 445.608L73.2897 336.003L67.4155 337.225ZM64.3045 443.224L27.0484 450.975L26.7086 456.965L63.9647 449.214L64.3045 443.224Z" fill="black" mask="url(#path-27-outside-14_69_380)"/>
<mask id="path-29-outside-15_69_380" maskUnits="userSpaceOnUse" x="212.356" y="242.254" width="162.002" height="212.282" fill="black">
<rect fill="white" x="212.356" y="242.254" width="162.002" height="212.282"/>
<path d="M215.854 450.526L219.42 387.661L229.069 385.653C232.399 382.979 235.463 379.551 238.261 375.367C241.103 371.175 243.633 365.494 245.849 358.325C248.111 351.147 250.011 341.771 251.551 330.196L259.472 269.936L356.499 249.749L350.219 360.447L364.692 357.436L361.126 420.302L325.21 427.774L327.117 394.155L253.677 409.434L251.77 443.054L215.854 450.526ZM271.686 376.786L314.303 367.92L318.846 287.834L291.239 293.578L287.467 322.724C286.355 331.418 284.97 339.112 283.31 345.805C281.697 352.442 279.885 358.312 277.875 363.412C275.911 368.457 273.848 372.915 271.686 376.786Z"/>
</mask>
<path d="M215.854 450.526L219.42 387.661L229.069 385.653C232.399 382.979 235.463 379.551 238.261 375.367C241.103 371.175 243.633 365.494 245.849 358.325C248.111 351.147 250.011 341.771 251.551 330.196L259.472 269.936L356.499 249.749L350.219 360.447L364.692 357.436L361.126 420.302L325.21 427.774L327.117 394.155L253.677 409.434L251.77 443.054L215.854 450.526ZM271.686 376.786L314.303 367.92L318.846 287.834L291.239 293.578L287.467 322.724C286.355 331.418 284.97 339.112 283.31 345.805C281.697 352.442 279.885 358.312 277.875 363.412C275.911 368.457 273.848 372.915 271.686 376.786Z" fill="#FAD77C"/>
<path d="M215.854 450.526L212.917 451.137L212.747 454.133L215.684 453.522L215.854 450.526ZM219.42 387.661L219.59 384.665L216.653 385.276L216.483 388.272L219.42 387.661ZM229.069 385.653L228.899 388.648L229.726 388.476L230.456 387.89L229.069 385.653ZM238.261 375.367L235.998 374.081L235.99 374.093L235.983 374.104L238.261 375.367ZM245.849 358.325L243.069 358.101L243.066 358.11L243.063 358.12L245.849 358.325ZM251.551 330.196L254.465 329.826L254.466 329.821L251.551 330.196ZM259.472 269.936L259.642 266.941L256.926 267.506L256.557 270.311L259.472 269.936ZM356.499 249.749L359.436 249.138L359.606 246.143L356.669 246.754L356.499 249.749ZM350.219 360.447L347.282 361.058L347.112 364.054L350.049 363.442L350.219 360.447ZM364.692 357.436L367.629 356.825L367.799 353.83L364.862 354.441L364.692 357.436ZM361.126 420.302L360.956 423.297L363.893 422.686L364.063 419.691L361.126 420.302ZM325.21 427.774L322.273 428.385L322.103 431.381L325.04 430.769L325.21 427.774ZM327.117 394.155L330.054 393.544L330.224 390.549L327.287 391.16L327.117 394.155ZM253.677 409.434L253.847 406.439L250.91 407.05L250.74 410.045L253.677 409.434ZM251.77 443.054L251.6 446.049L254.537 445.438L254.707 442.443L251.77 443.054ZM271.686 376.786L269.229 375.815L266.422 380.841L271.516 379.782L271.686 376.786ZM314.303 367.92L314.133 370.915L317.07 370.304L317.24 367.309L314.303 367.92ZM318.846 287.834L321.783 287.223L321.953 284.228L319.016 284.839L318.846 287.834ZM291.239 293.578L291.409 290.583L288.687 291.149L288.323 293.96L291.239 293.578ZM287.467 322.724L284.551 323.106L284.55 323.111L287.467 322.724ZM283.31 345.805L280.467 345.8L280.465 345.808L280.463 345.816L283.31 345.805ZM277.875 363.412L275.184 362.932L275.181 362.94L275.178 362.948L277.875 363.412ZM218.791 449.915L222.357 387.049L216.483 388.272L212.917 451.137L218.791 449.915ZM219.25 390.656L228.899 388.648L229.239 382.658L219.59 384.665L219.25 390.656ZM230.456 387.89C234.182 384.898 237.537 381.12 240.539 376.631L235.983 374.104C233.389 377.982 230.617 381.06 227.683 383.416L230.456 387.89ZM240.524 376.653C243.688 371.986 246.361 365.889 248.636 358.531L243.063 358.12C240.905 365.099 238.518 370.364 235.998 374.081L240.524 376.653ZM248.63 358.55C250.98 351.09 252.913 341.493 254.465 329.826L248.636 330.567C247.109 342.049 245.241 351.204 243.069 358.101L248.63 358.55ZM254.466 329.821L262.387 269.56L256.557 270.311L248.636 330.572L254.466 329.821ZM259.302 272.931L356.329 252.744L356.669 246.754L259.642 266.941L259.302 272.931ZM353.562 250.36L347.282 361.058L353.156 359.836L359.436 249.138L353.562 250.36ZM350.049 363.442L364.522 360.431L364.862 354.441L350.389 357.452L350.049 363.442ZM361.755 358.047L358.189 420.913L364.063 419.691L367.629 356.825L361.755 358.047ZM361.296 417.307L325.38 424.779L325.04 430.769L360.956 423.297L361.296 417.307ZM328.147 427.163L330.054 393.544L324.18 394.766L322.273 428.385L328.147 427.163ZM327.287 391.16L253.847 406.439L253.507 412.43L326.947 397.15L327.287 391.16ZM250.74 410.045L248.833 443.665L254.707 442.443L256.614 408.823L250.74 410.045ZM251.94 440.059L216.024 447.531L215.684 453.522L251.6 446.049L251.94 440.059ZM271.516 379.782L314.133 370.915L314.473 364.925L271.856 373.791L271.516 379.782ZM317.24 367.309L321.783 287.223L315.909 288.445L311.366 368.531L317.24 367.309ZM319.016 284.839L291.409 290.583L291.069 296.573L318.676 290.829L319.016 284.839ZM288.323 293.96L284.551 323.106L290.382 322.342L294.155 293.196L288.323 293.96ZM284.55 323.111C283.451 331.712 282.086 339.271 280.467 345.8L286.153 345.809C287.853 338.953 289.26 331.124 290.383 322.337L284.55 323.111ZM280.463 345.816C278.88 352.334 277.116 358.033 275.184 362.932L280.565 363.891C282.655 358.59 284.515 352.551 286.157 345.793L280.463 345.816ZM275.178 362.948C273.265 367.862 271.279 372.144 269.229 375.815L274.143 377.758C276.417 373.687 278.556 369.052 280.571 363.875L275.178 362.948Z" fill="black" mask="url(#path-29-outside-15_69_380)"/>
<mask id="path-31-outside-16_69_380" maskUnits="userSpaceOnUse" x="138.961" y="271.289" width="113.026" height="167.561" fill="black">
<rect fill="white" x="138.961" y="271.289" width="113.026" height="167.561"/>
<path d="M142.068 435.244L149.977 295.831L248.503 275.332L246.773 305.829L185.361 318.606L184.001 342.567L240.34 330.846L238.61 361.342L182.271 373.064L180.912 397.025L242.057 384.304L240.327 414.8L142.068 435.244Z"/>
</mask>
<path d="M142.068 435.244L149.977 295.831L248.503 275.332L246.773 305.829L185.361 318.606L184.001 342.567L240.34 330.846L238.61 361.342L182.271 373.064L180.912 397.025L242.057 384.304L240.327 414.8L142.068 435.244Z" fill="#FAD77C"/>
<path d="M142.068 435.244L139.13 435.855L138.961 438.85L141.898 438.239L142.068 435.244ZM149.977 295.831L150.147 292.836L147.209 293.447L147.04 296.442L149.977 295.831ZM248.503 275.332L251.44 274.721L251.61 271.726L248.673 272.337L248.503 275.332ZM246.773 305.829L246.603 308.824L249.54 308.213L249.71 305.218L246.773 305.829ZM185.361 318.606L185.531 315.611L182.594 316.222L182.424 319.217L185.361 318.606ZM184.001 342.567L181.064 343.178L180.894 346.174L183.832 345.563L184.001 342.567ZM240.34 330.846L243.278 330.235L243.448 327.24L240.51 327.851L240.34 330.846ZM238.61 361.342L238.44 364.337L241.378 363.726L241.548 360.731L238.61 361.342ZM182.271 373.064L182.441 370.069L179.504 370.68L179.334 373.675L182.271 373.064ZM180.912 397.025L177.975 397.636L177.805 400.632L180.742 400.02L180.912 397.025ZM242.057 384.304L244.994 383.693L245.164 380.697L242.227 381.309L242.057 384.304ZM240.327 414.8L240.157 417.795L243.094 417.184L243.264 414.189L240.327 414.8ZM145.005 434.632L152.914 295.22L147.04 296.442L139.13 435.855L145.005 434.632ZM149.807 298.827L248.333 278.328L248.673 272.337L150.147 292.836L149.807 298.827ZM245.566 275.943L243.836 306.44L249.71 305.218L251.44 274.721L245.566 275.943ZM246.943 302.834L185.531 315.611L185.191 321.601L246.603 308.824L246.943 302.834ZM182.424 319.217L181.064 343.178L186.939 341.956L188.298 317.995L182.424 319.217ZM183.832 345.563L240.171 333.841L240.51 327.851L184.171 339.572L183.832 345.563ZM237.403 331.457L235.673 361.953L241.548 360.731L243.278 330.235L237.403 331.457ZM238.78 358.347L182.441 370.069L182.101 376.059L238.44 364.337L238.78 358.347ZM179.334 373.675L177.975 397.636L183.849 396.414L185.208 372.453L179.334 373.675ZM180.742 400.02L241.887 387.299L242.227 381.309L181.082 394.03L180.742 400.02ZM239.12 384.915L237.39 415.411L243.264 414.189L244.994 383.693L239.12 384.915ZM240.497 411.805L142.238 432.248L141.898 438.239L240.157 417.795L240.497 411.805Z" fill="black" mask="url(#path-31-outside-16_69_380)"/>
</svg>
