<svg width="26" height="20" viewBox="0 0 26 20" fill="none" xmlns="http://www.w3.org/2000/svg">
<path d="M22.9316 4.98678C22.9463 5.20317 22.9463 5.42438 22.9463 5.64078C22.9463 12.3107 17.79 20 8.36621 20C5.46094 20 2.76562 19.1729 0.5 17.735C0.910156 17.7831 1.31055 17.7975 1.73535 17.7975C4.13281 17.7975 6.33496 16.9993 8.09766 15.6432C5.84668 15.5951 3.95703 14.1428 3.30762 12.1423C3.625 12.1904 3.94238 12.2193 4.27441 12.2193C4.7334 12.2193 5.19238 12.1568 5.62207 12.0462C3.27344 11.5797 1.51562 9.54556 1.51562 7.09305V7.03054C2.19922 7.40563 2.99023 7.64126 3.83008 7.67011C2.44824 6.76605 1.54492 5.2176 1.54492 3.46718C1.54492 2.52945 1.79883 1.66867 2.24316 0.91849C4.76758 3.98173 8.55664 5.98221 12.8096 6.19861C12.7314 5.82351 12.6826 5.434 12.6826 5.04448C12.6826 2.26497 14.9678 0 17.8047 0C19.2793 0 20.6123 0.610724 21.5498 1.59173C22.707 1.37533 23.8203 0.952152 24.8018 0.37509C24.4209 1.54845 23.6104 2.52945 22.5508 3.1546C23.5811 3.044 24.582 2.76509 25.5 2.37557C24.8018 3.37581 23.9277 4.26545 22.9316 4.98678Z" fill="white"/>
</svg>
