<svg width="63" height="63" viewBox="0 0 63 63" fill="none" xmlns="http://www.w3.org/2000/svg">
<path d="M48.4415 54.4259H14.5611C12.5948 54.4238 10.7096 53.6417 9.31926 52.2514C7.92889 50.861 7.14684 48.9759 7.1447 47.0096V44.5032H9.1607V47.0106C9.1623 48.4423 9.73178 49.815 10.7442 50.8274C11.7566 51.8399 13.1293 52.4093 14.5611 52.4109H48.4415C49.8732 52.4093 51.2459 51.8399 52.2583 50.8274C53.2707 49.815 53.8402 48.4423 53.8418 47.0106V44.5032H55.8578V47.0106C55.8554 48.9767 55.0732 50.8616 53.6829 52.2517C52.2926 53.6419 50.4076 54.4238 48.4415 54.4259Z" fill="#FAD77C"/>
<path d="M27.1807 46.2153H25.1647V28.5677H16.8044L31.4965 7.83972L46.1987 28.5677H37.8378V39.6285H35.8218V26.5517H42.2982L31.4975 11.3244L20.7043 26.5517H27.1807V46.2153Z" fill="#FAD77C"/>
</svg>
